solid OpenSCAD_Model
  facet normal -0 0 1
    outer loop
      vertex 0.010437 5 1
      vertex 1.54006 4.99895 1
      vertex 1.54006 5 1
    endloop
  endfacet
  facet normal 0 0 1
    outer loop
      vertex 1.54006 4.99895 1
      vertex 1.50951 0.0030899 1
      vertex 1.50994 0.00104523 1
    endloop
  endfacet
  facet normal 0 0 1
    outer loop
      vertex 1.54006 4.99895 1
      vertex 0.010437 5 1
      vertex 1.50951 0.0030899 1
    endloop
  endfacet
  facet normal 0 0 1
    outer loop
      vertex 1.95994 4.99895 1
      vertex 4.04006 4.99895 1
      vertex 4.04006 5 1
    endloop
  endfacet
  facet normal 0 0 1
    outer loop
      vertex 4.04006 4.99895 1
      vertex 3.00994 2.50105 1
      vertex 3.50994 0.00104523 1
    endloop
  endfacet
  facet normal 0 0 1
    outer loop
      vertex 4.04006 4.99895 1
      vertex 3.00951 2.50309 1
      vertex 3.00994 2.50105 1
    endloop
  endfacet
  facet normal 0 0 1
    outer loop
      vertex 4.04006 4.99895 1
      vertex 3.00866 2.505 1
      vertex 3.00951 2.50309 1
    endloop
  endfacet
  facet normal 0 0 1
    outer loop
      vertex 4.04006 4.99895 1
      vertex 3.00743 2.50669 1
      vertex 3.00866 2.505 1
    endloop
  endfacet
  facet normal 0 0 1
    outer loop
      vertex 4.04006 4.99895 1
      vertex 3.00588 2.50809 1
      vertex 3.00743 2.50669 1
    endloop
  endfacet
  facet normal 0 0 1
    outer loop
      vertex 4.04006 4.99895 1
      vertex 3.00407 2.50914 1
      vertex 3.00588 2.50809 1
    endloop
  endfacet
  facet normal 0 0 1
    outer loop
      vertex 4.04006 4.99895 1
      vertex 3.00208 2.50978 1
      vertex 3.00407 2.50914 1
    endloop
  endfacet
  facet normal 0 0 1
    outer loop
      vertex 4.04006 4.99895 1
      vertex 3 2.51 1
      vertex 3.00208 2.50978 1
    endloop
  endfacet
  facet normal 0 0 1
    outer loop
      vertex 4.04006 4.99895 1
      vertex 1.75994 3.79895 1
      vertex 3 2.51 1
    endloop
  endfacet
  facet normal 0 0 1
    outer loop
      vertex 3 2.51 1
      vertex 1.75994 3.79895 1
      vertex 2.99792 2.50978 1
    endloop
  endfacet
  facet normal -0 0 1
    outer loop
      vertex 1.75951 3.79691 1
      vertex 2.99792 2.50978 1
      vertex 1.75994 3.79895 1
    endloop
  endfacet
  facet normal 0 0 1
    outer loop
      vertex 2.99792 2.50978 1
      vertex 1.75951 3.79691 1
      vertex 2.99593 2.50914 1
    endloop
  endfacet
  facet normal -0 0 1
    outer loop
      vertex 1.75866 3.795 1
      vertex 2.99593 2.50914 1
      vertex 1.75951 3.79691 1
    endloop
  endfacet
  facet normal 0 0 1
    outer loop
      vertex 2.99593 2.50914 1
      vertex 1.75866 3.795 1
      vertex 2.99412 2.50809 1
    endloop
  endfacet
  facet normal 0 0 1
    outer loop
      vertex 1.95994 4.99895 1
      vertex 4.04006 5 1
      vertex 1.95994 5 1
    endloop
  endfacet
  facet normal 0 0 1
    outer loop
      vertex 4.04006 4.99895 1
      vertex 1.95994 4.99895 1
      vertex 1.75994 3.79895 1
    endloop
  endfacet
  facet normal -0 0 1
    outer loop
      vertex 1.75743 3.79331 1
      vertex 2.99412 2.50809 1
      vertex 1.75866 3.795 1
    endloop
  endfacet
  facet normal 0 0 1
    outer loop
      vertex 2.99412 2.50809 1
      vertex 1.75743 3.79331 1
      vertex 2.99257 2.50669 1
    endloop
  endfacet
  facet normal -0 0 1
    outer loop
      vertex 1.75588 3.79191 1
      vertex 2.99257 2.50669 1
      vertex 1.75743 3.79331 1
    endloop
  endfacet
  facet normal 0 0 1
    outer loop
      vertex 2.99257 2.50669 1
      vertex 1.75588 3.79191 1
      vertex 2.99134 2.505 1
    endloop
  endfacet
  facet normal -0 0 1
    outer loop
      vertex 1.75407 3.79086 1
      vertex 2.99134 2.505 1
      vertex 1.75588 3.79191 1
    endloop
  endfacet
  facet normal 0 0 1
    outer loop
      vertex 2.99134 2.505 1
      vertex 1.75407 3.79086 1
      vertex 2.99049 2.50309 1
    endloop
  endfacet
  facet normal -0 0 1
    outer loop
      vertex 1.75208 3.79022 1
      vertex 2.99049 2.50309 1
      vertex 1.75407 3.79086 1
    endloop
  endfacet
  facet normal 0 0 1
    outer loop
      vertex 2.99049 2.50309 1
      vertex 1.75208 3.79022 1
      vertex 2.99006 2.50105 1
    endloop
  endfacet
  facet normal -0 0 1
    outer loop
      vertex 1.75 3.79 1
      vertex 2.99006 2.50105 1
      vertex 1.75208 3.79022 1
    endloop
  endfacet
  facet normal 0 0 1
    outer loop
      vertex 2.99006 2.50105 1
      vertex 1.50994 0.00104523 1
      vertex 2.49006 0.00104523 1
    endloop
  endfacet
  facet normal 0 0 1
    outer loop
      vertex 1.74792 3.79022 1
      vertex 2.99006 2.50105 1
      vertex 1.75 3.79 1
    endloop
  endfacet
  facet normal 0 0 1
    outer loop
      vertex 1.74593 3.79086 1
      vertex 2.99006 2.50105 1
      vertex 1.74792 3.79022 1
    endloop
  endfacet
  facet normal 0 0 1
    outer loop
      vertex 2.99006 2.50105 1
      vertex 1.74593 3.79086 1
      vertex 1.50994 0.00104523 1
    endloop
  endfacet
  facet normal 0 0 1
    outer loop
      vertex 1.50994 0.00104523 1
      vertex 1.74593 3.79086 1
      vertex 1.74412 3.79191 1
    endloop
  endfacet
  facet normal 0 0 1
    outer loop
      vertex 1.50994 0.00104523 1
      vertex 1.74412 3.79191 1
      vertex 1.74257 3.79331 1
    endloop
  endfacet
  facet normal 0 0 1
    outer loop
      vertex 1.50994 0.00104523 1
      vertex 1.74257 3.79331 1
      vertex 1.74134 3.795 1
    endloop
  endfacet
  facet normal 0 0 1
    outer loop
      vertex 1.50994 0.00104523 1
      vertex 1.74134 3.795 1
      vertex 1.74049 3.79691 1
    endloop
  endfacet
  facet normal 0 0 1
    outer loop
      vertex 1.50994 0.00104523 1
      vertex 1.74049 3.79691 1
      vertex 1.74006 3.79895 1
    endloop
  endfacet
  facet normal 0 0 1
    outer loop
      vertex 1.50994 0.00104523 1
      vertex 1.74006 3.79895 1
      vertex 1.54006 4.99895 1
    endloop
  endfacet
  facet normal 0 0 1
    outer loop
      vertex 2.49006 0.00104523 1
      vertex 1.50994 0.00104523 1
      vertex 2.49006 0 1
    endloop
  endfacet
  facet normal 0 0 1
    outer loop
      vertex 2.49006 0 1
      vertex 1.50994 0.00104523 1
      vertex 1.50994 0 1
    endloop
  endfacet
  facet normal 0 0 1
    outer loop
      vertex 4.45994 4.99895 1
      vertex 5.98956 5 1
      vertex 4.45994 5 1
    endloop
  endfacet
  facet normal 0 0 1
    outer loop
      vertex 4.25994 3.79895 1
      vertex 5.98956 5 1
      vertex 4.45994 4.99895 1
    endloop
  endfacet
  facet normal 0 0 1
    outer loop
      vertex 4.25951 3.79691 1
      vertex 5.98956 5 1
      vertex 4.25994 3.79895 1
    endloop
  endfacet
  facet normal 0 0 1
    outer loop
      vertex 4.25866 3.795 1
      vertex 5.98956 5 1
      vertex 4.25951 3.79691 1
    endloop
  endfacet
  facet normal 0 0 1
    outer loop
      vertex 5.98956 5 1
      vertex 4.25866 3.795 1
      vertex 4.49049 0.0030899 1
    endloop
  endfacet
  facet normal -0 0 1
    outer loop
      vertex 4.25743 3.79331 1
      vertex 4.49049 0.0030899 1
      vertex 4.25866 3.795 1
    endloop
  endfacet
  facet normal -0 0 1
    outer loop
      vertex 4.25588 3.79191 1
      vertex 4.49049 0.0030899 1
      vertex 4.25743 3.79331 1
    endloop
  endfacet
  facet normal -0 0 1
    outer loop
      vertex 4.25407 3.79086 1
      vertex 4.49049 0.0030899 1
      vertex 4.25588 3.79191 1
    endloop
  endfacet
  facet normal -0 0 1
    outer loop
      vertex 4.25208 3.79022 1
      vertex 4.49049 0.0030899 1
      vertex 4.25407 3.79086 1
    endloop
  endfacet
  facet normal -0 0 1
    outer loop
      vertex 4.25 3.79 1
      vertex 4.49049 0.0030899 1
      vertex 4.25208 3.79022 1
    endloop
  endfacet
  facet normal 0 0 1
    outer loop
      vertex 4.24792 3.79022 1
      vertex 4.49049 0.0030899 1
      vertex 4.25 3.79 1
    endloop
  endfacet
  facet normal 0 0 1
    outer loop
      vertex 3.50994 0.00104523 1
      vertex 4.49049 0.0030899 1
      vertex 4.24792 3.79022 1
    endloop
  endfacet
  facet normal 0 0 1
    outer loop
      vertex 4.49049 0.0030899 1
      vertex 3.50994 0.00104523 1
      vertex 4.49005 0.00104523 1
    endloop
  endfacet
  facet normal 0 0 1
    outer loop
      vertex 3.50994 0.00104523 1
      vertex 4.24792 3.79022 1
      vertex 4.24593 3.79086 1
    endloop
  endfacet
  facet normal 0 0 1
    outer loop
      vertex 3.50994 0.00104523 1
      vertex 4.24593 3.79086 1
      vertex 4.24412 3.79191 1
    endloop
  endfacet
  facet normal 0 0 1
    outer loop
      vertex 3.50994 0.00104523 1
      vertex 4.24412 3.79191 1
      vertex 4.24257 3.79331 1
    endloop
  endfacet
  facet normal 0 0 1
    outer loop
      vertex 3.50994 0.00104523 1
      vertex 4.24257 3.79331 1
      vertex 4.24134 3.795 1
    endloop
  endfacet
  facet normal 0 0 1
    outer loop
      vertex 3.50994 0.00104523 1
      vertex 4.24134 3.795 1
      vertex 4.24049 3.79691 1
    endloop
  endfacet
  facet normal 0 0 1
    outer loop
      vertex 3.50994 0.00104523 1
      vertex 4.24049 3.79691 1
      vertex 4.24006 3.79895 1
    endloop
  endfacet
  facet normal 0 0 1
    outer loop
      vertex 3.50994 0.00104523 1
      vertex 4.24006 3.79895 1
      vertex 4.04006 4.99895 1
    endloop
  endfacet
  facet normal 0 0 1
    outer loop
      vertex 4.49005 0.00104523 1
      vertex 3.50994 0.00104523 1
      vertex 4.49005 0 1
    endloop
  endfacet
  facet normal 0 0 1
    outer loop
      vertex 4.49005 0 1
      vertex 3.50994 0.00104523 1
      vertex 3.50994 0 1
    endloop
  endfacet
  facet normal 0 0 -1
    outer loop
      vertex 1.50994 0.00104523 0
      vertex 2.49006 0.00104523 0
      vertex 2.49006 0 0
    endloop
  endfacet
  facet normal 0 0 -1
    outer loop
      vertex 2.49006 0.00104523 0
      vertex 1.75994 3.79895 0
      vertex 1.95994 4.99895 0
    endloop
  endfacet
  facet normal 0 0 -1
    outer loop
      vertex 2.49006 0.00104523 0
      vertex 1.75951 3.79691 0
      vertex 1.75994 3.79895 0
    endloop
  endfacet
  facet normal 0 0 -1
    outer loop
      vertex 2.49006 0.00104523 0
      vertex 1.75866 3.795 0
      vertex 1.75951 3.79691 0
    endloop
  endfacet
  facet normal 0 0 -1
    outer loop
      vertex 2.49006 0.00104523 0
      vertex 1.75743 3.79331 0
      vertex 1.75866 3.795 0
    endloop
  endfacet
  facet normal 0 0 -1
    outer loop
      vertex 2.49006 0.00104523 0
      vertex 1.75588 3.79191 0
      vertex 1.75743 3.79331 0
    endloop
  endfacet
  facet normal 0 0 -1
    outer loop
      vertex 2.49006 0.00104523 0
      vertex 1.75407 3.79086 0
      vertex 1.75588 3.79191 0
    endloop
  endfacet
  facet normal 0 0 -1
    outer loop
      vertex 2.49006 0.00104523 0
      vertex 1.75208 3.79022 0
      vertex 1.75407 3.79086 0
    endloop
  endfacet
  facet normal 0 0 -1
    outer loop
      vertex 2.49006 0.00104523 0
      vertex 1.50951 0.0030899 0
      vertex 1.75208 3.79022 0
    endloop
  endfacet
  facet normal 0 0 -1
    outer loop
      vertex 1.75208 3.79022 0
      vertex 1.50951 0.0030899 0
      vertex 1.75 3.79 0
    endloop
  endfacet
  facet normal -0 0 -1
    outer loop
      vertex 1.75 3.79 0
      vertex 1.50951 0.0030899 0
      vertex 1.74792 3.79022 0
    endloop
  endfacet
  facet normal -0 0 -1
    outer loop
      vertex 1.74792 3.79022 0
      vertex 1.50951 0.0030899 0
      vertex 1.74593 3.79086 0
    endloop
  endfacet
  facet normal -0 0 -1
    outer loop
      vertex 1.74593 3.79086 0
      vertex 1.50951 0.0030899 0
      vertex 1.74412 3.79191 0
    endloop
  endfacet
  facet normal -0 0 -1
    outer loop
      vertex 1.74412 3.79191 0
      vertex 1.50951 0.0030899 0
      vertex 1.74257 3.79331 0
    endloop
  endfacet
  facet normal -0 0 -1
    outer loop
      vertex 1.74257 3.79331 0
      vertex 1.50951 0.0030899 0
      vertex 1.74134 3.795 0
    endloop
  endfacet
  facet normal 0 0 -1
    outer loop
      vertex 0.010437 5 0
      vertex 1.74134 3.795 0
      vertex 1.50951 0.0030899 0
    endloop
  endfacet
  facet normal 0 0 -1
    outer loop
      vertex 1.50994 0.00104523 0
      vertex 2.49006 0 0
      vertex 1.50994 0 0
    endloop
  endfacet
  facet normal 0 0 -1
    outer loop
      vertex 2.49006 0.00104523 0
      vertex 1.50994 0.00104523 0
      vertex 1.50951 0.0030899 0
    endloop
  endfacet
  facet normal 0 0 -1
    outer loop
      vertex 1.74134 3.795 0
      vertex 0.010437 5 0
      vertex 1.74049 3.79691 0
    endloop
  endfacet
  facet normal 0 0 -1
    outer loop
      vertex 1.74049 3.79691 0
      vertex 0.010437 5 0
      vertex 1.74006 3.79895 0
    endloop
  endfacet
  facet normal 0 0 -1
    outer loop
      vertex 1.74006 3.79895 0
      vertex 0.010437 5 0
      vertex 1.54006 4.99895 0
    endloop
  endfacet
  facet normal 0 0 -1
    outer loop
      vertex 1.54006 4.99895 0
      vertex 0.010437 5 0
      vertex 1.54006 5 0
    endloop
  endfacet
  facet normal 0 0 -1
    outer loop
      vertex 1.95994 4.99895 0
      vertex 2.5 2.5 0
      vertex 2.49006 0.00104523 0
    endloop
  endfacet
  facet normal 0 0 -1
    outer loop
      vertex 2.49006 0.00104523 0
      vertex 2.5 2.5 0
      vertex 2.98985 2.5 0
    endloop
  endfacet
  facet normal 0 0 -1
    outer loop
      vertex 3.50994 0.00104523 0
      vertex 3.01015 2.5 0
      vertex 3.5 2.5 0
    endloop
  endfacet
  facet normal 0 0 -1
    outer loop
      vertex 3.50994 0.00104523 0
      vertex 4.49005 0.00104523 0
      vertex 4.49005 0 0
    endloop
  endfacet
  facet normal 0 0 -1
    outer loop
      vertex 4.49005 0.00104523 0
      vertex 4.25994 3.79895 0
      vertex 4.45994 4.99895 0
    endloop
  endfacet
  facet normal 0 0 -1
    outer loop
      vertex 4.49005 0.00104523 0
      vertex 4.25951 3.79691 0
      vertex 4.25994 3.79895 0
    endloop
  endfacet
  facet normal 0 0 -1
    outer loop
      vertex 4.49005 0.00104523 0
      vertex 4.25866 3.795 0
      vertex 4.25951 3.79691 0
    endloop
  endfacet
  facet normal 0 0 -1
    outer loop
      vertex 4.49005 0.00104523 0
      vertex 4.25743 3.79331 0
      vertex 4.25866 3.795 0
    endloop
  endfacet
  facet normal 0 0 -1
    outer loop
      vertex 4.49005 0.00104523 0
      vertex 4.25588 3.79191 0
      vertex 4.25743 3.79331 0
    endloop
  endfacet
  facet normal 0 0 -1
    outer loop
      vertex 4.49005 0.00104523 0
      vertex 3.5 2.5 0
      vertex 4.25588 3.79191 0
    endloop
  endfacet
  facet normal 0 0 -1
    outer loop
      vertex 4.25588 3.79191 0
      vertex 3.5 2.5 0
      vertex 4.25407 3.79086 0
    endloop
  endfacet
  facet normal 0 0 -1
    outer loop
      vertex 4.25407 3.79086 0
      vertex 3.5 2.5 0
      vertex 4.25208 3.79022 0
    endloop
  endfacet
  facet normal 0 0 -1
    outer loop
      vertex 4.25208 3.79022 0
      vertex 3.5 2.5 0
      vertex 4.25 3.79 0
    endloop
  endfacet
  facet normal -0 0 -1
    outer loop
      vertex 4.25 3.79 0
      vertex 3.5 2.5 0
      vertex 4.24792 3.79022 0
    endloop
  endfacet
  facet normal 0 0 -1
    outer loop
      vertex 3.5 3.5 0
      vertex 4.24792 3.79022 0
      vertex 3.5 2.5 0
    endloop
  endfacet
  facet normal -0 0 -1
    outer loop
      vertex 4.24792 3.79022 0
      vertex 3.5 3.5 0
      vertex 4.24593 3.79086 0
    endloop
  endfacet
  facet normal -0 0 -1
    outer loop
      vertex 4.24593 3.79086 0
      vertex 3.5 3.5 0
      vertex 4.24412 3.79191 0
    endloop
  endfacet
  facet normal -0 0 -1
    outer loop
      vertex 4.24412 3.79191 0
      vertex 3.5 3.5 0
      vertex 4.24257 3.79331 0
    endloop
  endfacet
  facet normal -0 0 -1
    outer loop
      vertex 4.24257 3.79331 0
      vertex 3.5 3.5 0
      vertex 4.24134 3.795 0
    endloop
  endfacet
  facet normal -0 0 -1
    outer loop
      vertex 4.24134 3.795 0
      vertex 3.5 3.5 0
      vertex 4.24049 3.79691 0
    endloop
  endfacet
  facet normal 0 0 -1
    outer loop
      vertex 3.50994 0.00104523 0
      vertex 4.49005 0 0
      vertex 3.50994 0 0
    endloop
  endfacet
  facet normal 0 0 -1
    outer loop
      vertex 4.49005 0.00104523 0
      vertex 3.50994 0.00104523 0
      vertex 3.5 2.5 0
    endloop
  endfacet
  facet normal -0 0 -1
    outer loop
      vertex 4.24049 3.79691 0
      vertex 3.5 3.5 0
      vertex 4.24006 3.79895 0
    endloop
  endfacet
  facet normal -0 0 -1
    outer loop
      vertex 4.24006 3.79895 0
      vertex 3.5 3.5 0
      vertex 4.04006 4.99895 0
    endloop
  endfacet
  facet normal 0 0 -1
    outer loop
      vertex 2.5 3.5 0
      vertex 4.04006 4.99895 0
      vertex 3.5 3.5 0
    endloop
  endfacet
  facet normal 0 0 -1
    outer loop
      vertex 1.95994 4.99895 0
      vertex 4.04006 4.99895 0
      vertex 2.5 3.5 0
    endloop
  endfacet
  facet normal 0 0 -1
    outer loop
      vertex 2.5 2.5 0
      vertex 1.95994 4.99895 0
      vertex 2.5 3.5 0
    endloop
  endfacet
  facet normal 0 0 -1
    outer loop
      vertex 4.04006 4.99895 0
      vertex 1.95994 4.99895 0
      vertex 4.04006 5 0
    endloop
  endfacet
  facet normal -0 0 -1
    outer loop
      vertex 4.04006 5 0
      vertex 1.95994 4.99895 0
      vertex 1.95994 5 0
    endloop
  endfacet
  facet normal 0 0 -1
    outer loop
      vertex 4.45994 4.99895 0
      vertex 4.49049 0.0030899 0
      vertex 4.49005 0.00104523 0
    endloop
  endfacet
  facet normal 0 0 -1
    outer loop
      vertex 4.45994 4.99895 0
      vertex 5.98956 5 0
      vertex 4.49049 0.0030899 0
    endloop
  endfacet
  facet normal -0 0 -1
    outer loop
      vertex 5.98956 5 0
      vertex 4.45994 4.99895 0
      vertex 4.45994 5 0
    endloop
  endfacet
  facet normal 0 0 1
    outer loop
      vertex 2.99006 2.50105 0
      vertex 3.00994 2.50105 0
      vertex 3.00951 2.50309 0
    endloop
  endfacet
  facet normal 0 0 1
    outer loop
      vertex 2.99006 2.50105 0
      vertex 3.00951 2.50309 0
      vertex 3.00866 2.505 0
    endloop
  endfacet
  facet normal 0 0 1
    outer loop
      vertex 3.00588 2.50809 0
      vertex 3.00866 2.505 0
      vertex 3.00743 2.50669 0
    endloop
  endfacet
  facet normal 0 0 1
    outer loop
      vertex 3.00407 2.50914 0
      vertex 3.00866 2.505 0
      vertex 3.00588 2.50809 0
    endloop
  endfacet
  facet normal 0 0 1
    outer loop
      vertex 3.00208 2.50978 0
      vertex 3.00866 2.505 0
      vertex 3.00407 2.50914 0
    endloop
  endfacet
  facet normal 0 0 1
    outer loop
      vertex 3 2.51 0
      vertex 3.00866 2.505 0
      vertex 3.00208 2.50978 0
    endloop
  endfacet
  facet normal -0 0 1
    outer loop
      vertex 2.99792 2.50978 0
      vertex 3.00866 2.505 0
      vertex 3 2.51 0
    endloop
  endfacet
  facet normal -0 0 1
    outer loop
      vertex 2.99593 2.50914 0
      vertex 3.00866 2.505 0
      vertex 2.99792 2.50978 0
    endloop
  endfacet
  facet normal -0 0 1
    outer loop
      vertex 2.99412 2.50809 0
      vertex 3.00866 2.505 0
      vertex 2.99593 2.50914 0
    endloop
  endfacet
  facet normal -0 0 1
    outer loop
      vertex 2.99257 2.50669 0
      vertex 3.00866 2.505 0
      vertex 2.99412 2.50809 0
    endloop
  endfacet
  facet normal 0 0 1
    outer loop
      vertex 2.99134 2.505 0
      vertex 3.00866 2.505 0
      vertex 2.99257 2.50669 0
    endloop
  endfacet
  facet normal 0 0 1
    outer loop
      vertex 2.99049 2.50309 0
      vertex 3.00866 2.505 0
      vertex 2.99134 2.505 0
    endloop
  endfacet
  facet normal 0 0 1
    outer loop
      vertex 2.99006 2.50105 0
      vertex 3.00866 2.505 0
      vertex 2.99049 2.50309 0
    endloop
  endfacet
  facet normal 0 0 1
    outer loop
      vertex 3.00994 2.50105 0
      vertex 2.99006 2.50105 0
      vertex 3.01015 2.5 0
    endloop
  endfacet
  facet normal 0 0 1
    outer loop
      vertex 3.01015 2.5 0
      vertex 2.99006 2.50105 0
      vertex 2.98985 2.5 0
    endloop
  endfacet
  facet normal 0 -1 0
    outer loop
      vertex 1.50994 0 0
      vertex 2.49006 0 1
      vertex 1.50994 0 1
    endloop
  endfacet
  facet normal 0 -1 -0
    outer loop
      vertex 2.49006 0 1
      vertex 1.50994 0 0
      vertex 2.49006 0 0
    endloop
  endfacet
  facet normal 0 -1 0
    outer loop
      vertex 3.50994 0 0
      vertex 4.49005 0 1
      vertex 3.50994 0 1
    endloop
  endfacet
  facet normal 0 -1 -0
    outer loop
      vertex 4.49005 0 1
      vertex 3.50994 0 0
      vertex 4.49005 0 0
    endloop
  endfacet
  facet normal 0 1 -0
    outer loop
      vertex 1.54006 5 0
      vertex 0.010437 5 1
      vertex 1.54006 5 1
    endloop
  endfacet
  facet normal 0 1 0
    outer loop
      vertex 0.010437 5 1
      vertex 1.54006 5 0
      vertex 0.010437 5 0
    endloop
  endfacet
  facet normal 0 1 -0
    outer loop
      vertex 5.98956 5 0
      vertex 4.45994 5 1
      vertex 5.98956 5 1
    endloop
  endfacet
  facet normal 0 1 0
    outer loop
      vertex 4.45994 5 1
      vertex 5.98956 5 0
      vertex 4.45994 5 0
    endloop
  endfacet
  facet normal 0 1 -0
    outer loop
      vertex 4.04006 5 0
      vertex 1.95994 5 1
      vertex 4.04006 5 1
    endloop
  endfacet
  facet normal 0 1 0
    outer loop
      vertex 1.95994 5 1
      vertex 4.04006 5 0
      vertex 1.95994 5 0
    endloop
  endfacet
  facet normal -0.978122 -0.208033 0
    outer loop
      vertex 1.50994 0.00104523 0
      vertex 1.50951 0.0030899 1
      vertex 1.50951 0.0030899 0
    endloop
  endfacet
  facet normal -0.978122 -0.208033 0
    outer loop
      vertex 1.50951 0.0030899 1
      vertex 1.50994 0.00104523 0
      vertex 1.50994 0.00104523 1
    endloop
  endfacet
  facet normal -0.957826 -0.287348 0
    outer loop
      vertex 1.50951 0.0030899 0
      vertex 0.010437 5 1
      vertex 0.010437 5 0
    endloop
  endfacet
  facet normal -0.957826 -0.287348 0
    outer loop
      vertex 0.010437 5 1
      vertex 1.50951 0.0030899 0
      vertex 1.50951 0.0030899 1
    endloop
  endfacet
  facet normal -1 0 0
    outer loop
      vertex 1.50994 0 0
      vertex 1.50994 0.00104523 1
      vertex 1.50994 0.00104523 0
    endloop
  endfacet
  facet normal -1 -0 0
    outer loop
      vertex 1.50994 0.00104523 1
      vertex 1.50994 0 0
      vertex 1.50994 0 1
    endloop
  endfacet
  facet normal 0.978122 -0.208033 0
    outer loop
      vertex 4.49005 0.00104523 1
      vertex 4.49049 0.0030899 0
      vertex 4.49049 0.0030899 1
    endloop
  endfacet
  facet normal 0.978122 -0.208033 0
    outer loop
      vertex 4.49049 0.0030899 0
      vertex 4.49005 0.00104523 1
      vertex 4.49005 0.00104523 0
    endloop
  endfacet
  facet normal 0.957826 -0.287348 0
    outer loop
      vertex 4.49049 0.0030899 1
      vertex 5.98956 5 0
      vertex 5.98956 5 1
    endloop
  endfacet
  facet normal 0.957826 -0.287348 0
    outer loop
      vertex 5.98956 5 0
      vertex 4.49049 0.0030899 1
      vertex 4.49049 0.0030899 0
    endloop
  endfacet
  facet normal 1 -0 0
    outer loop
      vertex 4.49005 0 1
      vertex 4.49005 0.00104523 0
      vertex 4.49005 0.00104523 1
    endloop
  endfacet
  facet normal 1 0 0
    outer loop
      vertex 4.49005 0.00104523 0
      vertex 4.49005 0 1
      vertex 4.49005 0 0
    endloop
  endfacet
  facet normal 0.980572 -0.196159 0
    outer loop
      vertex 2.99006 2.50105 1
      vertex 2.98985 2.5 0
      vertex 2.99006 2.50105 0
    endloop
  endfacet
  facet normal 0.980581 -0.196116 -4.67577e-008
    outer loop
      vertex 2.49006 0.00104523 1
      vertex 2.98985 2.5 0
      vertex 2.99006 2.50105 1
    endloop
  endfacet
  facet normal 0.980581 -0.196116 0
    outer loop
      vertex 2.98985 2.5 0
      vertex 2.49006 0.00104523 1
      vertex 2.49006 0.00104523 0
    endloop
  endfacet
  facet normal 0.978122 -0.208033 0
    outer loop
      vertex 2.99006 2.50105 1
      vertex 2.99049 2.50309 0
      vertex 2.99049 2.50309 1
    endloop
  endfacet
  facet normal 0.978122 -0.208033 0
    outer loop
      vertex 2.99049 2.50309 0
      vertex 2.99006 2.50105 1
      vertex 2.99006 2.50105 0
    endloop
  endfacet
  facet normal 0.104471 -0.994528 0
    outer loop
      vertex 2.99792 2.50978 0
      vertex 3 2.51 1
      vertex 2.99792 2.50978 1
    endloop
  endfacet
  facet normal 0.104471 -0.994528 0
    outer loop
      vertex 3 2.51 1
      vertex 2.99792 2.50978 0
      vertex 3 2.51 0
    endloop
  endfacet
  facet normal 0.809209 -0.587521 0
    outer loop
      vertex 2.99134 2.505 1
      vertex 2.99257 2.50669 0
      vertex 2.99257 2.50669 1
    endloop
  endfacet
  facet normal 0.809209 -0.587521 0
    outer loop
      vertex 2.99257 2.50669 0
      vertex 2.99134 2.505 1
      vertex 2.99134 2.505 0
    endloop
  endfacet
  facet normal 0.669192 -0.74309 0
    outer loop
      vertex 2.99257 2.50669 0
      vertex 2.99412 2.50809 1
      vertex 2.99257 2.50669 1
    endloop
  endfacet
  facet normal 0.669192 -0.74309 0
    outer loop
      vertex 2.99412 2.50809 1
      vertex 2.99257 2.50669 0
      vertex 2.99412 2.50809 0
    endloop
  endfacet
  facet normal 0.913435 -0.406985 0
    outer loop
      vertex 2.99049 2.50309 1
      vertex 2.99134 2.505 0
      vertex 2.99134 2.505 1
    endloop
  endfacet
  facet normal 0.913435 -0.406985 0
    outer loop
      vertex 2.99134 2.505 0
      vertex 2.99049 2.50309 1
      vertex 2.99049 2.50309 0
    endloop
  endfacet
  facet normal 1 -0 0
    outer loop
      vertex 2.49006 0 1
      vertex 2.49006 0.00104523 0
      vertex 2.49006 0.00104523 1
    endloop
  endfacet
  facet normal 1 0 0
    outer loop
      vertex 2.49006 0.00104523 0
      vertex 2.49006 0 1
      vertex 2.49006 0 0
    endloop
  endfacet
  facet normal 0.499867 -0.866102 0
    outer loop
      vertex 2.99412 2.50809 0
      vertex 2.99593 2.50914 1
      vertex 2.99412 2.50809 1
    endloop
  endfacet
  facet normal 0.499867 -0.866102 0
    outer loop
      vertex 2.99593 2.50914 1
      vertex 2.99412 2.50809 0
      vertex 2.99593 2.50914 0
    endloop
  endfacet
  facet normal 0.308962 -0.951074 0
    outer loop
      vertex 2.99593 2.50914 0
      vertex 2.99792 2.50978 1
      vertex 2.99593 2.50914 1
    endloop
  endfacet
  facet normal 0.308962 -0.951074 0
    outer loop
      vertex 2.99792 2.50978 1
      vertex 2.99593 2.50914 0
      vertex 2.99792 2.50978 0
    endloop
  endfacet
  facet normal -0.308962 -0.951074 0
    outer loop
      vertex 3.00208 2.50978 0
      vertex 3.00407 2.50914 1
      vertex 3.00208 2.50978 1
    endloop
  endfacet
  facet normal -0.308962 -0.951074 -0
    outer loop
      vertex 3.00407 2.50914 1
      vertex 3.00208 2.50978 0
      vertex 3.00407 2.50914 0
    endloop
  endfacet
  facet normal -0.104471 -0.994528 0
    outer loop
      vertex 3 2.51 0
      vertex 3.00208 2.50978 1
      vertex 3 2.51 1
    endloop
  endfacet
  facet normal -0.104471 -0.994528 -0
    outer loop
      vertex 3.00208 2.50978 1
      vertex 3 2.51 0
      vertex 3.00208 2.50978 0
    endloop
  endfacet
  facet normal -0.499867 -0.866102 0
    outer loop
      vertex 3.00407 2.50914 0
      vertex 3.00588 2.50809 1
      vertex 3.00407 2.50914 1
    endloop
  endfacet
  facet normal -0.499867 -0.866102 -0
    outer loop
      vertex 3.00588 2.50809 1
      vertex 3.00407 2.50914 0
      vertex 3.00588 2.50809 0
    endloop
  endfacet
  facet normal -0.669192 -0.74309 0
    outer loop
      vertex 3.00588 2.50809 0
      vertex 3.00743 2.50669 1
      vertex 3.00588 2.50809 1
    endloop
  endfacet
  facet normal -0.669192 -0.74309 -0
    outer loop
      vertex 3.00743 2.50669 1
      vertex 3.00588 2.50809 0
      vertex 3.00743 2.50669 0
    endloop
  endfacet
  facet normal -0.809209 -0.587521 0
    outer loop
      vertex 3.00866 2.505 0
      vertex 3.00743 2.50669 1
      vertex 3.00743 2.50669 0
    endloop
  endfacet
  facet normal -0.809209 -0.587521 0
    outer loop
      vertex 3.00743 2.50669 1
      vertex 3.00866 2.505 0
      vertex 3.00866 2.505 1
    endloop
  endfacet
  facet normal -0.913435 -0.406985 0
    outer loop
      vertex 3.00951 2.50309 0
      vertex 3.00866 2.505 1
      vertex 3.00866 2.505 0
    endloop
  endfacet
  facet normal -0.913435 -0.406985 0
    outer loop
      vertex 3.00866 2.505 1
      vertex 3.00951 2.50309 0
      vertex 3.00951 2.50309 1
    endloop
  endfacet
  facet normal -0.978122 -0.208033 0
    outer loop
      vertex 3.00994 2.50105 0
      vertex 3.00951 2.50309 1
      vertex 3.00951 2.50309 0
    endloop
  endfacet
  facet normal -0.978122 -0.208033 0
    outer loop
      vertex 3.00951 2.50309 1
      vertex 3.00994 2.50105 0
      vertex 3.00994 2.50105 1
    endloop
  endfacet
  facet normal -0.980572 -0.196159 0
    outer loop
      vertex 3.01015 2.5 0
      vertex 3.00994 2.50105 1
      vertex 3.00994 2.50105 0
    endloop
  endfacet
  facet normal -0.980581 -0.196116 -4.67773e-008
    outer loop
      vertex 3.50994 0.00104523 0
      vertex 3.00994 2.50105 1
      vertex 3.01015 2.5 0
    endloop
  endfacet
  facet normal -0.980581 -0.196116 0
    outer loop
      vertex 3.00994 2.50105 1
      vertex 3.50994 0.00104523 0
      vertex 3.50994 0.00104523 1
    endloop
  endfacet
  facet normal -1 0 0
    outer loop
      vertex 3.50994 0 0
      vertex 3.50994 0.00104523 1
      vertex 3.50994 0.00104523 0
    endloop
  endfacet
  facet normal -1 -0 0
    outer loop
      vertex 3.50994 0.00104523 1
      vertex 3.50994 0 0
      vertex 3.50994 0 1
    endloop
  endfacet
  facet normal 0.499867 0.866102 -0
    outer loop
      vertex 4.24593 3.79086 0
      vertex 4.24412 3.79191 1
      vertex 4.24593 3.79086 1
    endloop
  endfacet
  facet normal 0.499867 0.866102 0
    outer loop
      vertex 4.24412 3.79191 1
      vertex 4.24593 3.79086 0
      vertex 4.24412 3.79191 0
    endloop
  endfacet
  facet normal -0.986394 0.164399 0
    outer loop
      vertex 4.25994 3.79895 0
      vertex 4.45994 4.99895 1
      vertex 4.45994 4.99895 0
    endloop
  endfacet
  facet normal -0.986394 0.164399 0
    outer loop
      vertex 4.45994 4.99895 1
      vertex 4.25994 3.79895 0
      vertex 4.25994 3.79895 1
    endloop
  endfacet
  facet normal -0.308962 0.951074 0
    outer loop
      vertex 4.25407 3.79086 0
      vertex 4.25208 3.79022 1
      vertex 4.25407 3.79086 1
    endloop
  endfacet
  facet normal -0.308962 0.951074 0
    outer loop
      vertex 4.25208 3.79022 1
      vertex 4.25407 3.79086 0
      vertex 4.25208 3.79022 0
    endloop
  endfacet
  facet normal 0.104471 0.994528 -0
    outer loop
      vertex 4.25 3.79 0
      vertex 4.24792 3.79022 1
      vertex 4.25 3.79 1
    endloop
  endfacet
  facet normal 0.104471 0.994528 0
    outer loop
      vertex 4.24792 3.79022 1
      vertex 4.25 3.79 0
      vertex 4.24792 3.79022 0
    endloop
  endfacet
  facet normal -0.104471 0.994528 0
    outer loop
      vertex 4.25208 3.79022 0
      vertex 4.25 3.79 1
      vertex 4.25208 3.79022 1
    endloop
  endfacet
  facet normal -0.104471 0.994528 0
    outer loop
      vertex 4.25 3.79 1
      vertex 4.25208 3.79022 0
      vertex 4.25 3.79 0
    endloop
  endfacet
  facet normal -0.669192 0.74309 0
    outer loop
      vertex 4.25743 3.79331 0
      vertex 4.25588 3.79191 1
      vertex 4.25743 3.79331 1
    endloop
  endfacet
  facet normal -0.669192 0.74309 0
    outer loop
      vertex 4.25588 3.79191 1
      vertex 4.25743 3.79331 0
      vertex 4.25588 3.79191 0
    endloop
  endfacet
  facet normal -1 0 0
    outer loop
      vertex 4.45994 4.99895 0
      vertex 4.45994 5 1
      vertex 4.45994 5 0
    endloop
  endfacet
  facet normal -1 -0 0
    outer loop
      vertex 4.45994 5 1
      vertex 4.45994 4.99895 0
      vertex 4.45994 4.99895 1
    endloop
  endfacet
  facet normal 0.978122 0.208033 0
    outer loop
      vertex 4.24049 3.79691 1
      vertex 4.24006 3.79895 0
      vertex 4.24006 3.79895 1
    endloop
  endfacet
  facet normal 0.978122 0.208033 0
    outer loop
      vertex 4.24006 3.79895 0
      vertex 4.24049 3.79691 1
      vertex 4.24049 3.79691 0
    endloop
  endfacet
  facet normal 0.669192 0.74309 -0
    outer loop
      vertex 4.24412 3.79191 0
      vertex 4.24257 3.79331 1
      vertex 4.24412 3.79191 1
    endloop
  endfacet
  facet normal 0.669192 0.74309 0
    outer loop
      vertex 4.24257 3.79331 1
      vertex 4.24412 3.79191 0
      vertex 4.24257 3.79331 0
    endloop
  endfacet
  facet normal 0.809052 0.587737 0
    outer loop
      vertex 4.24257 3.79331 1
      vertex 4.24134 3.795 0
      vertex 4.24134 3.795 1
    endloop
  endfacet
  facet normal 0.809052 0.587737 0
    outer loop
      vertex 4.24134 3.795 0
      vertex 4.24257 3.79331 1
      vertex 4.24257 3.79331 0
    endloop
  endfacet
  facet normal -0.499867 0.866102 0
    outer loop
      vertex 4.25588 3.79191 0
      vertex 4.25407 3.79086 1
      vertex 4.25588 3.79191 1
    endloop
  endfacet
  facet normal -0.499867 0.866102 0
    outer loop
      vertex 4.25407 3.79086 1
      vertex 4.25588 3.79191 0
      vertex 4.25407 3.79086 0
    endloop
  endfacet
  facet normal -0.91351 0.406815 0
    outer loop
      vertex 4.25866 3.795 0
      vertex 4.25951 3.79691 1
      vertex 4.25951 3.79691 0
    endloop
  endfacet
  facet normal -0.91351 0.406815 0
    outer loop
      vertex 4.25951 3.79691 1
      vertex 4.25866 3.795 0
      vertex 4.25866 3.795 1
    endloop
  endfacet
  facet normal 0.308962 0.951074 -0
    outer loop
      vertex 4.24792 3.79022 0
      vertex 4.24593 3.79086 1
      vertex 4.24792 3.79022 1
    endloop
  endfacet
  facet normal 0.308962 0.951074 0
    outer loop
      vertex 4.24593 3.79086 1
      vertex 4.24792 3.79022 0
      vertex 4.24593 3.79086 0
    endloop
  endfacet
  facet normal 0.91351 0.406815 0
    outer loop
      vertex 4.24134 3.795 1
      vertex 4.24049 3.79691 0
      vertex 4.24049 3.79691 1
    endloop
  endfacet
  facet normal 0.91351 0.406815 0
    outer loop
      vertex 4.24049 3.79691 0
      vertex 4.24134 3.795 1
      vertex 4.24134 3.795 0
    endloop
  endfacet
  facet normal -0.809052 0.587737 0
    outer loop
      vertex 4.25743 3.79331 0
      vertex 4.25866 3.795 1
      vertex 4.25866 3.795 0
    endloop
  endfacet
  facet normal -0.809052 0.587737 0
    outer loop
      vertex 4.25866 3.795 1
      vertex 4.25743 3.79331 0
      vertex 4.25743 3.79331 1
    endloop
  endfacet
  facet normal -0.978122 0.208033 0
    outer loop
      vertex 4.25951 3.79691 0
      vertex 4.25994 3.79895 1
      vertex 4.25994 3.79895 0
    endloop
  endfacet
  facet normal -0.978122 0.208033 0
    outer loop
      vertex 4.25994 3.79895 1
      vertex 4.25951 3.79691 0
      vertex 4.25951 3.79691 1
    endloop
  endfacet
  facet normal 1 -0 0
    outer loop
      vertex 4.04006 4.99895 1
      vertex 4.04006 5 0
      vertex 4.04006 5 1
    endloop
  endfacet
  facet normal 1 0 0
    outer loop
      vertex 4.04006 5 0
      vertex 4.04006 4.99895 1
      vertex 4.04006 4.99895 0
    endloop
  endfacet
  facet normal 0.986394 0.164399 0
    outer loop
      vertex 4.24006 3.79895 1
      vertex 4.04006 4.99895 0
      vertex 4.04006 4.99895 1
    endloop
  endfacet
  facet normal 0.986394 0.164399 0
    outer loop
      vertex 4.04006 4.99895 0
      vertex 4.24006 3.79895 1
      vertex 4.24006 3.79895 0
    endloop
  endfacet
  facet normal -0.104471 0.994528 0
    outer loop
      vertex 1.75208 3.79022 0
      vertex 1.75 3.79 1
      vertex 1.75208 3.79022 1
    endloop
  endfacet
  facet normal -0.104471 0.994528 0
    outer loop
      vertex 1.75 3.79 1
      vertex 1.75208 3.79022 0
      vertex 1.75 3.79 0
    endloop
  endfacet
  facet normal 0.986394 0.164399 0
    outer loop
      vertex 1.74006 3.79895 1
      vertex 1.54006 4.99895 0
      vertex 1.54006 4.99895 1
    endloop
  endfacet
  facet normal 0.986394 0.164399 0
    outer loop
      vertex 1.54006 4.99895 0
      vertex 1.74006 3.79895 1
      vertex 1.74006 3.79895 0
    endloop
  endfacet
  facet normal 0.308962 0.951074 -0
    outer loop
      vertex 1.74792 3.79022 0
      vertex 1.74593 3.79086 1
      vertex 1.74792 3.79022 1
    endloop
  endfacet
  facet normal 0.308962 0.951074 0
    outer loop
      vertex 1.74593 3.79086 1
      vertex 1.74792 3.79022 0
      vertex 1.74593 3.79086 0
    endloop
  endfacet
  facet normal 0.104471 0.994528 -0
    outer loop
      vertex 1.75 3.79 0
      vertex 1.74792 3.79022 1
      vertex 1.75 3.79 1
    endloop
  endfacet
  facet normal 0.104471 0.994528 0
    outer loop
      vertex 1.74792 3.79022 1
      vertex 1.75 3.79 0
      vertex 1.74792 3.79022 0
    endloop
  endfacet
  facet normal -0.499867 0.866102 0
    outer loop
      vertex 1.75588 3.79191 0
      vertex 1.75407 3.79086 1
      vertex 1.75588 3.79191 1
    endloop
  endfacet
  facet normal -0.499867 0.866102 0
    outer loop
      vertex 1.75407 3.79086 1
      vertex 1.75588 3.79191 0
      vertex 1.75407 3.79086 0
    endloop
  endfacet
  facet normal -0.308962 0.951074 0
    outer loop
      vertex 1.75407 3.79086 0
      vertex 1.75208 3.79022 1
      vertex 1.75407 3.79086 1
    endloop
  endfacet
  facet normal -0.308962 0.951074 0
    outer loop
      vertex 1.75208 3.79022 1
      vertex 1.75407 3.79086 0
      vertex 1.75208 3.79022 0
    endloop
  endfacet
  facet normal -0.809052 0.587737 0
    outer loop
      vertex 1.75743 3.79331 0
      vertex 1.75866 3.795 1
      vertex 1.75866 3.795 0
    endloop
  endfacet
  facet normal -0.809052 0.587737 0
    outer loop
      vertex 1.75866 3.795 1
      vertex 1.75743 3.79331 0
      vertex 1.75743 3.79331 1
    endloop
  endfacet
  facet normal -0.669192 0.74309 0
    outer loop
      vertex 1.75743 3.79331 0
      vertex 1.75588 3.79191 1
      vertex 1.75743 3.79331 1
    endloop
  endfacet
  facet normal -0.669192 0.74309 0
    outer loop
      vertex 1.75588 3.79191 1
      vertex 1.75743 3.79331 0
      vertex 1.75588 3.79191 0
    endloop
  endfacet
  facet normal 0.91351 0.406815 0
    outer loop
      vertex 1.74134 3.795 1
      vertex 1.74049 3.79691 0
      vertex 1.74049 3.79691 1
    endloop
  endfacet
  facet normal 0.91351 0.406815 0
    outer loop
      vertex 1.74049 3.79691 0
      vertex 1.74134 3.795 1
      vertex 1.74134 3.795 0
    endloop
  endfacet
  facet normal 0.978122 0.208033 0
    outer loop
      vertex 1.74049 3.79691 1
      vertex 1.74006 3.79895 0
      vertex 1.74006 3.79895 1
    endloop
  endfacet
  facet normal 0.978122 0.208033 0
    outer loop
      vertex 1.74006 3.79895 0
      vertex 1.74049 3.79691 1
      vertex 1.74049 3.79691 0
    endloop
  endfacet
  facet normal -0.91351 0.406815 0
    outer loop
      vertex 1.75866 3.795 0
      vertex 1.75951 3.79691 1
      vertex 1.75951 3.79691 0
    endloop
  endfacet
  facet normal -0.91351 0.406815 0
    outer loop
      vertex 1.75951 3.79691 1
      vertex 1.75866 3.795 0
      vertex 1.75866 3.795 1
    endloop
  endfacet
  facet normal -0.978122 0.208033 0
    outer loop
      vertex 1.75951 3.79691 0
      vertex 1.75994 3.79895 1
      vertex 1.75994 3.79895 0
    endloop
  endfacet
  facet normal -0.978122 0.208033 0
    outer loop
      vertex 1.75994 3.79895 1
      vertex 1.75951 3.79691 0
      vertex 1.75951 3.79691 1
    endloop
  endfacet
  facet normal 0.809052 0.587737 0
    outer loop
      vertex 1.74257 3.79331 1
      vertex 1.74134 3.795 0
      vertex 1.74134 3.795 1
    endloop
  endfacet
  facet normal 0.809052 0.587737 0
    outer loop
      vertex 1.74134 3.795 0
      vertex 1.74257 3.79331 1
      vertex 1.74257 3.79331 0
    endloop
  endfacet
  facet normal 0.669192 0.74309 -0
    outer loop
      vertex 1.74412 3.79191 0
      vertex 1.74257 3.79331 1
      vertex 1.74412 3.79191 1
    endloop
  endfacet
  facet normal 0.669192 0.74309 0
    outer loop
      vertex 1.74257 3.79331 1
      vertex 1.74412 3.79191 0
      vertex 1.74257 3.79331 0
    endloop
  endfacet
  facet normal 0.499867 0.866102 -0
    outer loop
      vertex 1.74593 3.79086 0
      vertex 1.74412 3.79191 1
      vertex 1.74593 3.79086 1
    endloop
  endfacet
  facet normal 0.499867 0.866102 0
    outer loop
      vertex 1.74412 3.79191 1
      vertex 1.74593 3.79086 0
      vertex 1.74412 3.79191 0
    endloop
  endfacet
  facet normal 1 -0 0
    outer loop
      vertex 1.54006 4.99895 1
      vertex 1.54006 5 0
      vertex 1.54006 5 1
    endloop
  endfacet
  facet normal 1 0 0
    outer loop
      vertex 1.54006 5 0
      vertex 1.54006 4.99895 1
      vertex 1.54006 4.99895 0
    endloop
  endfacet
  facet normal -1 0 0
    outer loop
      vertex 1.95994 4.99895 0
      vertex 1.95994 5 1
      vertex 1.95994 5 0
    endloop
  endfacet
  facet normal -1 -0 0
    outer loop
      vertex 1.95994 5 1
      vertex 1.95994 4.99895 0
      vertex 1.95994 4.99895 1
    endloop
  endfacet
  facet normal -0.986394 0.164399 0
    outer loop
      vertex 1.75994 3.79895 0
      vertex 1.95994 4.99895 1
      vertex 1.95994 4.99895 0
    endloop
  endfacet
  facet normal -0.986394 0.164399 0
    outer loop
      vertex 1.95994 4.99895 1
      vertex 1.75994 3.79895 0
      vertex 1.75994 3.79895 1
    endloop
  endfacet
  facet normal -1 0.000456204 0
    outer loop
      vertex -3.00994 2.99895 0
      vertex -3.00994 3.00105 1
      vertex -3.00994 3.00105 0
    endloop
  endfacet
  facet normal -1 0.000456204 0
    outer loop
      vertex -3.00994 3.00105 1
      vertex -3.00994 2.99895 0
      vertex -3.00994 2.99895 1
    endloop
  endfacet
  facet normal 0 1 -0
    outer loop
      vertex 3.52264 7.97261 0
      vertex 2.47736 7.97261 1
      vertex 3.52264 7.97261 1
    endloop
  endfacet
  facet normal 0 1 0
    outer loop
      vertex 2.47736 7.97261 1
      vertex 3.52264 7.97261 0
      vertex 2.47736 7.97261 0
    endloop
  endfacet
  facet normal 0 -1 0
    outer loop
      vertex 2.47736 -1.97261 0
      vertex 3.52264 -1.97261 1
      vertex 2.47736 -1.97261 1
    endloop
  endfacet
  facet normal 0 -1 -0
    outer loop
      vertex 3.52264 -1.97261 1
      vertex 2.47736 -1.97261 0
      vertex 3.52264 -1.97261 0
    endloop
  endfacet
  facet normal 0.587785 0.809017 -0
    outer loop
      vertex 6.34565 6.71572 0
      vertex 5.5 7.33013 1
      vertex 6.34565 6.71572 1
    endloop
  endfacet
  facet normal 0.587785 0.809017 0
    outer loop
      vertex 5.5 7.33013 1
      vertex 6.34565 6.71572 0
      vertex 5.5 7.33013 0
    endloop
  endfacet
  facet normal 0.406737 0.913545 -0
    outer loop
      vertex 5.5 7.33013 0
      vertex 4.54508 7.75528 1
      vertex 5.5 7.33013 1
    endloop
  endfacet
  facet normal 0.406737 0.913545 0
    outer loop
      vertex 4.54508 7.75528 1
      vertex 5.5 7.33013 0
      vertex 4.54508 7.75528 0
    endloop
  endfacet
  facet normal -0.587785 0.809017 0
    outer loop
      vertex 0.5 7.33013 0
      vertex -0.345653 6.71572 1
      vertex 0.5 7.33013 1
    endloop
  endfacet
  facet normal -0.587785 0.809017 0
    outer loop
      vertex -0.345653 6.71572 1
      vertex 0.5 7.33013 0
      vertex -0.345653 6.71572 0
    endloop
  endfacet
  facet normal -0.743145 0.669131 0
    outer loop
      vertex -1.04508 5.93893 0
      vertex -0.345653 6.71572 1
      vertex -0.345653 6.71572 0
    endloop
  endfacet
  facet normal -0.743145 0.669131 0
    outer loop
      vertex -0.345653 6.71572 1
      vertex -1.04508 5.93893 0
      vertex -1.04508 5.93893 1
    endloop
  endfacet
  facet normal -0.207911 0.978148 0
    outer loop
      vertex 2.47736 7.97261 0
      vertex 1.45491 7.75528 1
      vertex 2.47736 7.97261 1
    endloop
  endfacet
  facet normal -0.207911 0.978148 0
    outer loop
      vertex 1.45491 7.75528 1
      vertex 2.47736 7.97261 0
      vertex 1.45491 7.75528 0
    endloop
  endfacet
  facet normal 0.743144 -0.669131 0
    outer loop
      vertex 6.34565 -0.715724 1
      vertex 7.04508 0.0610733 0
      vertex 7.04508 0.0610733 1
    endloop
  endfacet
  facet normal 0.743144 -0.669131 0
    outer loop
      vertex 7.04508 0.0610733 0
      vertex 6.34565 -0.715724 1
      vertex 6.34565 -0.715724 0
    endloop
  endfacet
  facet normal 0.866026 0.5 0
    outer loop
      vertex 7.04508 5.93893 1
      vertex 7.2985 5.5 0
      vertex 7.04508 5.93893 0
    endloop
  endfacet
  facet normal 0.866025 0.5 -1.44117e-007
    outer loop
      vertex 7.56773 5.03368 1
      vertex 7.2985 5.5 0
      vertex 7.04508 5.93893 1
    endloop
  endfacet
  facet normal 0.866025 0.5 -9.94119e-010
    outer loop
      vertex 7.2985 5.5 0
      vertex 7.56773 5.03368 1
      vertex 7.5 5.15099 0
    endloop
  endfacet
  facet normal 0.866025 0.5 0
    outer loop
      vertex 7.5 5.15099 0
      vertex 7.56773 5.03368 1
      vertex 7.56773 5.03368 0
    endloop
  endfacet
  facet normal 0.951057 0.309016 0
    outer loop
      vertex 7.74113 4.5 1
      vertex 7.56773 5.03368 0
      vertex 7.56773 5.03368 1
    endloop
  endfacet
  facet normal 0.951057 0.309016 0
    outer loop
      vertex 7.56773 5.03368 0
      vertex 7.74113 4.5 1
      vertex 7.74113 4.5 0
    endloop
  endfacet
  facet normal 0.743145 0.669131 0
    outer loop
      vertex 7.04508 5.93893 1
      vertex 6.34565 6.71572 0
      vertex 6.34565 6.71572 1
    endloop
  endfacet
  facet normal 0.743145 0.669131 0
    outer loop
      vertex 6.34565 6.71572 0
      vertex 7.04508 5.93893 1
      vertex 7.04508 5.93893 0
    endloop
  endfacet
  facet normal 0.207911 0.978148 -0
    outer loop
      vertex 4.54508 7.75528 0
      vertex 3.52264 7.97261 1
      vertex 4.54508 7.75528 1
    endloop
  endfacet
  facet normal 0.207911 0.978148 0
    outer loop
      vertex 3.52264 7.97261 1
      vertex 4.54508 7.75528 0
      vertex 3.52264 7.97261 0
    endloop
  endfacet
  facet normal -0.831052 0.556194 0
    outer loop
      vertex -2.67737 3.5 0
      vertex -1.04508 5.93893 1
      vertex -1.04508 5.93893 0
    endloop
  endfacet
  facet normal -0.831052 0.556194 6.49538e-008
    outer loop
      vertex -3.00866 3.005 1
      vertex -2.67737 3.5 0
      vertex -3 3.01794 0
    endloop
  endfacet
  facet normal -0.831055 0.556191 0
    outer loop
      vertex -3.00866 3.005 1
      vertex -3 3.01794 0
      vertex -3.00866 3.005 0
    endloop
  endfacet
  facet normal -0.831052 0.556194 -7.23371e-008
    outer loop
      vertex -2.67737 3.5 0
      vertex -3.00866 3.005 1
      vertex -1.04508 5.93893 1
    endloop
  endfacet
  facet normal -0.406737 0.913545 0
    outer loop
      vertex 1.45491 7.75528 0
      vertex 0.5 7.33013 1
      vertex 1.45491 7.75528 1
    endloop
  endfacet
  facet normal -0.406737 0.913545 0
    outer loop
      vertex 0.5 7.33013 1
      vertex 1.45491 7.75528 0
      vertex 0.5 7.33013 0
    endloop
  endfacet
  facet normal 0.207911 -0.978148 0
    outer loop
      vertex 3.52264 -1.97261 0
      vertex 4.54508 -1.75528 1
      vertex 3.52264 -1.97261 1
    endloop
  endfacet
  facet normal 0.207911 -0.978148 0
    outer loop
      vertex 4.54508 -1.75528 1
      vertex 3.52264 -1.97261 0
      vertex 4.54508 -1.75528 0
    endloop
  endfacet
  facet normal 0.587785 -0.809017 0
    outer loop
      vertex 5.5 -1.33013 0
      vertex 6.34565 -0.715724 1
      vertex 5.5 -1.33013 1
    endloop
  endfacet
  facet normal 0.587785 -0.809017 0
    outer loop
      vertex 6.34565 -0.715724 1
      vertex 5.5 -1.33013 0
      vertex 6.34565 -0.715724 0
    endloop
  endfacet
  facet normal -0.587786 -0.809017 0
    outer loop
      vertex -0.345653 -0.715724 0
      vertex 0.499999 -1.33013 1
      vertex -0.345653 -0.715724 1
    endloop
  endfacet
  facet normal -0.587786 -0.809017 -0
    outer loop
      vertex 0.499999 -1.33013 1
      vertex -0.345653 -0.715724 0
      vertex 0.499999 -1.33013 0
    endloop
  endfacet
  facet normal -0.207911 -0.978148 0
    outer loop
      vertex 1.45491 -1.75528 0
      vertex 2.47736 -1.97261 1
      vertex 1.45491 -1.75528 1
    endloop
  endfacet
  facet normal -0.207911 -0.978148 -0
    outer loop
      vertex 2.47736 -1.97261 1
      vertex 1.45491 -1.75528 0
      vertex 2.47736 -1.97261 0
    endloop
  endfacet
  facet normal -0.743144 -0.669131 0
    outer loop
      vertex -0.345653 -0.715724 0
      vertex -1.04508 0.0610733 1
      vertex -1.04508 0.0610733 0
    endloop
  endfacet
  facet normal -0.743144 -0.669131 0
    outer loop
      vertex -1.04508 0.0610733 1
      vertex -0.345653 -0.715724 0
      vertex -0.345653 -0.715724 1
    endloop
  endfacet
  facet normal 0 0 -1
    outer loop
      vertex -3 2.98206 0
      vertex -3.00866 3.005 0
      vertex -3 3.01794 0
    endloop
  endfacet
  facet normal 0 0 -1
    outer loop
      vertex -3.00866 2.995 0
      vertex -3.00866 3.005 0
      vertex -3 2.98206 0
    endloop
  endfacet
  facet normal 0 0 -1
    outer loop
      vertex -3.00866 2.995 0
      vertex -3.00951 3.00309 0
      vertex -3.00866 3.005 0
    endloop
  endfacet
  facet normal 0 0 -1
    outer loop
      vertex -3.00951 2.99691 0
      vertex -3.00951 3.00309 0
      vertex -3.00866 2.995 0
    endloop
  endfacet
  facet normal 0 0 -1
    outer loop
      vertex -3.00951 2.99691 0
      vertex -3.00994 3.00105 0
      vertex -3.00951 3.00309 0
    endloop
  endfacet
  facet normal 0 -0 -1
    outer loop
      vertex -3.00994 3.00105 0
      vertex -3.00951 2.99691 0
      vertex -3.00994 2.99895 0
    endloop
  endfacet
  facet normal 0 0 -1
    outer loop
      vertex 7.04508 0.0610733 0
      vertex 6.5 0.5 0
      vertex 7.2985 0.5 0
    endloop
  endfacet
  facet normal 0 0 -1
    outer loop
      vertex 6.34565 -0.715724 0
      vertex 6.5 0.5 0
      vertex 7.04508 0.0610733 0
    endloop
  endfacet
  facet normal 0 0 -1
    outer loop
      vertex 5.67652 0.02742 0
      vertex 6.5 0.5 0
      vertex 6.34565 -0.715724 0
    endloop
  endfacet
  facet normal 0 0 -1
    outer loop
      vertex 6.5 0.5 0
      vertex 6.23607 0.648858 0
      vertex 6.5 1.106 0
    endloop
  endfacet
  facet normal -0 0 -1
    outer loop
      vertex 6.5 0.5 0
      vertex 5.67652 0.02742 0
      vertex 6.23607 0.648858 0
    endloop
  endfacet
  facet normal 0 0 -1
    outer loop
      vertex 5.5 -1.33013 0
      vertex 5.67652 0.02742 0
      vertex 6.34565 -0.715724 0
    endloop
  endfacet
  facet normal 0 0 -1
    outer loop
      vertex 5.5 -1.33013 0
      vertex 5 -0.464101 0
      vertex 5.67652 0.02742 0
    endloop
  endfacet
  facet normal 0 0 -1
    outer loop
      vertex 4.54508 -1.75528 0
      vertex 5 -0.464101 0
      vertex 5.5 -1.33013 0
    endloop
  endfacet
  facet normal 0 0 -1
    outer loop
      vertex 4.54508 -1.75528 0
      vertex 4.23607 -0.804226 0
      vertex 5 -0.464101 0
    endloop
  endfacet
  facet normal 0 0 -1
    outer loop
      vertex 3.52264 -1.97261 0
      vertex 4.23607 -0.804226 0
      vertex 4.54508 -1.75528 0
    endloop
  endfacet
  facet normal 0 0 -1
    outer loop
      vertex 3.52264 -1.97261 0
      vertex 3.41811 -0.978087 0
      vertex 4.23607 -0.804226 0
    endloop
  endfacet
  facet normal 0 0 -1
    outer loop
      vertex 3.52264 -1.97261 0
      vertex 2.58189 -0.978087 0
      vertex 3.41811 -0.978087 0
    endloop
  endfacet
  facet normal 0 0 -1
    outer loop
      vertex 2.47736 -1.97261 0
      vertex 2.58189 -0.978087 0
      vertex 3.52264 -1.97261 0
    endloop
  endfacet
  facet normal 0 0 -1
    outer loop
      vertex 2.47736 -1.97261 0
      vertex 1.76393 -0.804226 0
      vertex 2.58189 -0.978087 0
    endloop
  endfacet
  facet normal 0 0 -1
    outer loop
      vertex 1.45491 -1.75528 0
      vertex 1.76393 -0.804226 0
      vertex 2.47736 -1.97261 0
    endloop
  endfacet
  facet normal 0 0 -1
    outer loop
      vertex 1.45491 -1.75528 0
      vertex 0.999999 -0.464101 0
      vertex 1.76393 -0.804226 0
    endloop
  endfacet
  facet normal 0 0 -1
    outer loop
      vertex 0.499999 -1.33013 0
      vertex 0.999999 -0.464101 0
      vertex 1.45491 -1.75528 0
    endloop
  endfacet
  facet normal 0 0 -1
    outer loop
      vertex 0.499999 -1.33013 0
      vertex 0.323477 0.02742 0
      vertex 0.999999 -0.464101 0
    endloop
  endfacet
  facet normal 0 0 -1
    outer loop
      vertex -0.345653 -0.715724 0
      vertex 0.323477 0.02742 0
      vertex 0.499999 -1.33013 0
    endloop
  endfacet
  facet normal -0 0 -1
    outer loop
      vertex 0.323477 0.02742 0
      vertex -0.345653 -0.715724 0
      vertex -0.236068 0.648858 0
    endloop
  endfacet
  facet normal 0 0 -1
    outer loop
      vertex -1.04508 0.0610733 0
      vertex -0.236068 0.648858 0
      vertex -0.345653 -0.715724 0
    endloop
  endfacet
  facet normal 0 0 -1
    outer loop
      vertex -2 2.5 0
      vertex -0.236068 0.648858 0
      vertex -1.04508 0.0610733 0
    endloop
  endfacet
  facet normal 0 0 -1
    outer loop
      vertex -0.236068 0.648858 0
      vertex -2 2.5 0
      vertex -1.70866 2.995 0
    endloop
  endfacet
  facet normal -0 0 -1
    outer loop
      vertex -1.70994 2.99895 0
      vertex -2 2.5 0
      vertex -1.70994 3.00105 0
    endloop
  endfacet
  facet normal -0 0 -1
    outer loop
      vertex -1.70951 2.99691 0
      vertex -2 2.5 0
      vertex -1.70994 2.99895 0
    endloop
  endfacet
  facet normal -0 0 -1
    outer loop
      vertex -1.70866 2.995 0
      vertex -2 2.5 0
      vertex -1.70951 2.99691 0
    endloop
  endfacet
  facet normal -0 -0 -1
    outer loop
      vertex -2 2.5 0
      vertex -1.04508 0.0610733 0
      vertex -2.67737 2.5 0
    endloop
  endfacet
  facet normal 0 0 -1
    outer loop
      vertex 6.23607 5.35114 0
      vertex 6.5 5.5 0
      vertex 6.5 4.894 0
    endloop
  endfacet
  facet normal 0 0 -1
    outer loop
      vertex 5.67652 5.97258 0
      vertex 6.5 5.5 0
      vertex 6.23607 5.35114 0
    endloop
  endfacet
  facet normal 0 0 -1
    outer loop
      vertex 6.5 5.5 0
      vertex 5.67652 5.97258 0
      vertex 6.34565 6.71572 0
    endloop
  endfacet
  facet normal 0 0 -1
    outer loop
      vertex 5.67652 5.97258 0
      vertex 5.5 7.33013 0
      vertex 6.34565 6.71572 0
    endloop
  endfacet
  facet normal 0 0 -1
    outer loop
      vertex 5 6.4641 0
      vertex 5.5 7.33013 0
      vertex 5.67652 5.97258 0
    endloop
  endfacet
  facet normal 0 0 -1
    outer loop
      vertex 5 6.4641 0
      vertex 4.54508 7.75528 0
      vertex 5.5 7.33013 0
    endloop
  endfacet
  facet normal 0 0 -1
    outer loop
      vertex 4.23607 6.80423 0
      vertex 4.54508 7.75528 0
      vertex 5 6.4641 0
    endloop
  endfacet
  facet normal 0 0 -1
    outer loop
      vertex 4.23607 6.80423 0
      vertex 3.52264 7.97261 0
      vertex 4.54508 7.75528 0
    endloop
  endfacet
  facet normal 0 0 -1
    outer loop
      vertex 3.41811 6.97809 0
      vertex 3.52264 7.97261 0
      vertex 4.23607 6.80423 0
    endloop
  endfacet
  facet normal 0 0 -1
    outer loop
      vertex 2.58189 6.97809 0
      vertex 3.52264 7.97261 0
      vertex 3.41811 6.97809 0
    endloop
  endfacet
  facet normal 0 0 -1
    outer loop
      vertex 2.58189 6.97809 0
      vertex 2.47736 7.97261 0
      vertex 3.52264 7.97261 0
    endloop
  endfacet
  facet normal 0 0 -1
    outer loop
      vertex 1.76393 6.80423 0
      vertex 2.47736 7.97261 0
      vertex 2.58189 6.97809 0
    endloop
  endfacet
  facet normal 0 0 -1
    outer loop
      vertex 1.76393 6.80423 0
      vertex 1.45491 7.75528 0
      vertex 2.47736 7.97261 0
    endloop
  endfacet
  facet normal 0 0 -1
    outer loop
      vertex 1 6.4641 0
      vertex 1.45491 7.75528 0
      vertex 1.76393 6.80423 0
    endloop
  endfacet
  facet normal 0 0 -1
    outer loop
      vertex 1 6.4641 0
      vertex 0.5 7.33013 0
      vertex 1.45491 7.75528 0
    endloop
  endfacet
  facet normal 0 0 -1
    outer loop
      vertex 0.323477 5.97258 0
      vertex 0.5 7.33013 0
      vertex 1 6.4641 0
    endloop
  endfacet
  facet normal 0 0 -1
    outer loop
      vertex -0.345653 6.71572 0
      vertex 0.323477 5.97258 0
      vertex -0.236068 5.35114 0
    endloop
  endfacet
  facet normal 0 0 -1
    outer loop
      vertex 0.323477 5.97258 0
      vertex -0.345653 6.71572 0
      vertex 0.5 7.33013 0
    endloop
  endfacet
  facet normal 0 0 -1
    outer loop
      vertex -0.236068 5.35114 0
      vertex -1.04508 5.93893 0
      vertex -0.345653 6.71572 0
    endloop
  endfacet
  facet normal 0 0 -1
    outer loop
      vertex -2 3.5 0
      vertex -0.236068 5.35114 0
      vertex -1.70866 3.005 0
    endloop
  endfacet
  facet normal 0 0 -1
    outer loop
      vertex -2 3.5 0
      vertex -1.70866 3.005 0
      vertex -1.70951 3.00309 0
    endloop
  endfacet
  facet normal 0 0 -1
    outer loop
      vertex -2 3.5 0
      vertex -1.70994 3.00105 0
      vertex -2 2.5 0
    endloop
  endfacet
  facet normal 0 0 -1
    outer loop
      vertex -1.70994 3.00105 0
      vertex -2 3.5 0
      vertex -1.70951 3.00309 0
    endloop
  endfacet
  facet normal -0 0 -1
    outer loop
      vertex -0.236068 5.35114 0
      vertex -2 3.5 0
      vertex -1.04508 5.93893 0
    endloop
  endfacet
  facet normal 0 0 -1
    outer loop
      vertex -1.04508 5.93893 0
      vertex -2 3.5 0
      vertex -2.67737 3.5 0
    endloop
  endfacet
  facet normal 0 0 -1
    outer loop
      vertex 6.5 5.5 0
      vertex 7.04508 5.93893 0
      vertex 7.2985 5.5 0
    endloop
  endfacet
  facet normal -0 0 -1
    outer loop
      vertex 7.04508 5.93893 0
      vertex 6.5 5.5 0
      vertex 6.34565 6.71572 0
    endloop
  endfacet
  facet normal 0 0 -1
    outer loop
      vertex 7.5 4.5 0
      vertex 7.56773 5.03368 0
      vertex 7.74113 4.5 0
    endloop
  endfacet
  facet normal -0 0 -1
    outer loop
      vertex 7.56773 5.03368 0
      vertex 7.5 4.5 0
      vertex 7.5 5.15099 0
    endloop
  endfacet
  facet normal 0 0 -1
    outer loop
      vertex 7.5 1.5 0
      vertex 7.56773 0.966316 0
      vertex 7.5 0.849009 0
    endloop
  endfacet
  facet normal 0 0 -1
    outer loop
      vertex 7.56773 0.966316 0
      vertex 7.5 1.5 0
      vertex 7.74113 1.5 0
    endloop
  endfacet
  facet normal 0 0 1
    outer loop
      vertex 6.5 4.5 0
      vertex 6.65418 4.62695 0
      vertex 6.5 4.894 0
    endloop
  endfacet
  facet normal 0 0 1
    outer loop
      vertex 6.65418 4.62695 0
      vertex 6.5 4.5 0
      vertex 6.69543 4.5 0
    endloop
  endfacet
  facet normal -0 0 1
    outer loop
      vertex 6.5 1.5 0
      vertex 6.65418 1.37305 0
      vertex 6.69543 1.5 0
    endloop
  endfacet
  facet normal 0 0 1
    outer loop
      vertex 6.65418 1.37305 0
      vertex 6.5 1.5 0
      vertex 6.5 1.106 0
    endloop
  endfacet
  facet normal 0 -0 1
    outer loop
      vertex 7.5 0.5 0
      vertex 7.5 0.849009 0
      vertex 7.2985 0.5 0
    endloop
  endfacet
  facet normal 0 -0 1
    outer loop
      vertex 7.5 5.15099 0
      vertex 7.5 5.5 0
      vertex 7.2985 5.5 0
    endloop
  endfacet
  facet normal 0 0 1
    outer loop
      vertex -2.67737 2.5 0
      vertex -3 2.98206 0
      vertex -3 2.5 0
    endloop
  endfacet
  facet normal 0 0 1
    outer loop
      vertex -2.67737 3.5 0
      vertex -3 3.5 0
      vertex -3 3.01794 0
    endloop
  endfacet
  facet normal -0.913435 0.406985 0
    outer loop
      vertex -3.00951 3.00309 0
      vertex -3.00866 3.005 1
      vertex -3.00866 3.005 0
    endloop
  endfacet
  facet normal -0.913435 0.406985 0
    outer loop
      vertex -3.00866 3.005 1
      vertex -3.00951 3.00309 0
      vertex -3.00951 3.00309 1
    endloop
  endfacet
  facet normal 0.406737 -0.913545 0
    outer loop
      vertex 4.54508 -1.75528 0
      vertex 5.5 -1.33013 1
      vertex 4.54508 -1.75528 1
    endloop
  endfacet
  facet normal 0.406737 -0.913545 0
    outer loop
      vertex 5.5 -1.33013 1
      vertex 4.54508 -1.75528 0
      vertex 5.5 -1.33013 0
    endloop
  endfacet
  facet normal 0.951057 -0.309017 0
    outer loop
      vertex 7.56773 0.966316 1
      vertex 7.74113 1.5 0
      vertex 7.74113 1.5 1
    endloop
  endfacet
  facet normal 0.951057 -0.309017 0
    outer loop
      vertex 7.74113 1.5 0
      vertex 7.56773 0.966316 1
      vertex 7.56773 0.966316 0
    endloop
  endfacet
  facet normal 0.866025 -0.5 0
    outer loop
      vertex 7.56773 0.966316 1
      vertex 7.5 0.849009 0
      vertex 7.56773 0.966316 0
    endloop
  endfacet
  facet normal 0.866026 -0.499999 -7.85016e-008
    outer loop
      vertex 7.56773 0.966316 1
      vertex 7.2985 0.5 0
      vertex 7.5 0.849009 0
    endloop
  endfacet
  facet normal 0.866025 -0.5 2.04952e-007
    outer loop
      vertex 7.04508 0.0610733 1
      vertex 7.2985 0.5 0
      vertex 7.56773 0.966316 1
    endloop
  endfacet
  facet normal 0.866025 -0.5 0
    outer loop
      vertex 7.2985 0.5 0
      vertex 7.04508 0.0610733 1
      vertex 7.04508 0.0610733 0
    endloop
  endfacet
  facet normal -0.406737 -0.913545 0
    outer loop
      vertex 0.499999 -1.33013 0
      vertex 1.45491 -1.75528 1
      vertex 0.499999 -1.33013 1
    endloop
  endfacet
  facet normal -0.406737 -0.913545 -0
    outer loop
      vertex 1.45491 -1.75528 1
      vertex 0.499999 -1.33013 0
      vertex 1.45491 -1.75528 0
    endloop
  endfacet
  facet normal -0.831055 -0.556191 0
    outer loop
      vertex -3 2.98206 0
      vertex -3.00866 2.995 1
      vertex -3.00866 2.995 0
    endloop
  endfacet
  facet normal -0.831052 -0.556194 6.81257e-008
    outer loop
      vertex -2.67737 2.5 0
      vertex -3.00866 2.995 1
      vertex -3 2.98206 0
    endloop
  endfacet
  facet normal -0.831052 -0.556194 -0
    outer loop
      vertex -1.04508 0.0610733 1
      vertex -2.67737 2.5 0
      vertex -1.04508 0.0610733 0
    endloop
  endfacet
  facet normal -0.831052 -0.556194 -2.81124e-008
    outer loop
      vertex -2.67737 2.5 0
      vertex -1.04508 0.0610733 1
      vertex -3.00866 2.995 1
    endloop
  endfacet
  facet normal -0.978122 -0.208033 0
    outer loop
      vertex -3.00951 2.99691 0
      vertex -3.00994 2.99895 1
      vertex -3.00994 2.99895 0
    endloop
  endfacet
  facet normal -0.978122 -0.208033 0
    outer loop
      vertex -3.00994 2.99895 1
      vertex -3.00951 2.99691 0
      vertex -3.00951 2.99691 1
    endloop
  endfacet
  facet normal -0.978122 0.208033 0
    outer loop
      vertex -3.00994 3.00105 0
      vertex -3.00951 3.00309 1
      vertex -3.00951 3.00309 0
    endloop
  endfacet
  facet normal -0.978122 0.208033 0
    outer loop
      vertex -3.00951 3.00309 1
      vertex -3.00994 3.00105 0
      vertex -3.00994 3.00105 1
    endloop
  endfacet
  facet normal 0 0 1
    outer loop
      vertex 6.65418 4.62695 1
      vertex 7.56773 5.03368 1
      vertex 7.04508 5.93893 1
    endloop
  endfacet
  facet normal 0 -0 1
    outer loop
      vertex 6.69543 4.5 1
      vertex 7.56773 5.03368 1
      vertex 6.65418 4.62695 1
    endloop
  endfacet
  facet normal 0 0 1
    outer loop
      vertex 7.56773 5.03368 1
      vertex 6.69543 4.5 1
      vertex 7.74113 4.5 1
    endloop
  endfacet
  facet normal 0 0 1
    outer loop
      vertex 6.23607 5.35114 1
      vertex 7.04508 5.93893 1
      vertex 6.34565 6.71572 1
    endloop
  endfacet
  facet normal 0 0 1
    outer loop
      vertex 7.04508 5.93893 1
      vertex 6.23607 5.35114 1
      vertex 6.65418 4.62695 1
    endloop
  endfacet
  facet normal 0 0 1
    outer loop
      vertex 6.34565 6.71572 1
      vertex 5.67652 5.97258 1
      vertex 6.23607 5.35114 1
    endloop
  endfacet
  facet normal 0 0 1
    outer loop
      vertex 5.5 7.33013 1
      vertex 5.67652 5.97258 1
      vertex 6.34565 6.71572 1
    endloop
  endfacet
  facet normal 0 0 1
    outer loop
      vertex 5.5 7.33013 1
      vertex 5 6.4641 1
      vertex 5.67652 5.97258 1
    endloop
  endfacet
  facet normal 0 0 1
    outer loop
      vertex 4.54508 7.75528 1
      vertex 5 6.4641 1
      vertex 5.5 7.33013 1
    endloop
  endfacet
  facet normal 0 0 1
    outer loop
      vertex 4.54508 7.75528 1
      vertex 4.23607 6.80423 1
      vertex 5 6.4641 1
    endloop
  endfacet
  facet normal 0 0 1
    outer loop
      vertex 3.52264 7.97261 1
      vertex 4.23607 6.80423 1
      vertex 4.54508 7.75528 1
    endloop
  endfacet
  facet normal 0 0 1
    outer loop
      vertex 3.52264 7.97261 1
      vertex 3.41811 6.97809 1
      vertex 4.23607 6.80423 1
    endloop
  endfacet
  facet normal 0 0 1
    outer loop
      vertex 3.52264 7.97261 1
      vertex 2.58189 6.97809 1
      vertex 3.41811 6.97809 1
    endloop
  endfacet
  facet normal -0 0 1
    outer loop
      vertex 2.47736 7.97261 1
      vertex 2.58189 6.97809 1
      vertex 3.52264 7.97261 1
    endloop
  endfacet
  facet normal 0 0 1
    outer loop
      vertex 2.47736 7.97261 1
      vertex 1.76393 6.80423 1
      vertex 2.58189 6.97809 1
    endloop
  endfacet
  facet normal -0 0 1
    outer loop
      vertex 1.45491 7.75528 1
      vertex 1.76393 6.80423 1
      vertex 2.47736 7.97261 1
    endloop
  endfacet
  facet normal 0 0 1
    outer loop
      vertex 1.45491 7.75528 1
      vertex 1 6.4641 1
      vertex 1.76393 6.80423 1
    endloop
  endfacet
  facet normal -0 0 1
    outer loop
      vertex 0.5 7.33013 1
      vertex 1 6.4641 1
      vertex 1.45491 7.75528 1
    endloop
  endfacet
  facet normal 0 0 1
    outer loop
      vertex 0.5 7.33013 1
      vertex 0.323477 5.97258 1
      vertex 1 6.4641 1
    endloop
  endfacet
  facet normal -0 0 1
    outer loop
      vertex -0.345653 6.71572 1
      vertex 0.323477 5.97258 1
      vertex 0.5 7.33013 1
    endloop
  endfacet
  facet normal 0 0 1
    outer loop
      vertex 0.323477 5.97258 1
      vertex -0.345653 6.71572 1
      vertex -0.236068 5.35114 1
    endloop
  endfacet
  facet normal -0 0 1
    outer loop
      vertex -1.04508 5.93893 1
      vertex -0.236068 5.35114 1
      vertex -0.345653 6.71572 1
    endloop
  endfacet
  facet normal 0 0 1
    outer loop
      vertex -1.04508 5.93893 1
      vertex -1.70866 3.005 1
      vertex -0.236068 5.35114 1
    endloop
  endfacet
  facet normal 0 0 1
    outer loop
      vertex -3.00866 3.005 1
      vertex -1.70866 3.005 1
      vertex -1.04508 5.93893 1
    endloop
  endfacet
  facet normal 0 0 1
    outer loop
      vertex -1.70994 3.00105 1
      vertex -3.00866 3.005 1
      vertex -1.70994 2.99895 1
    endloop
  endfacet
  facet normal 0 0 1
    outer loop
      vertex -1.70951 3.00309 1
      vertex -3.00866 3.005 1
      vertex -1.70994 3.00105 1
    endloop
  endfacet
  facet normal 0 0 1
    outer loop
      vertex -1.70866 3.005 1
      vertex -3.00866 3.005 1
      vertex -1.70951 3.00309 1
    endloop
  endfacet
  facet normal -0 0 1
    outer loop
      vertex 6.69543 1.5 1
      vertex 7.56773 0.966316 1
      vertex 7.74113 1.5 1
    endloop
  endfacet
  facet normal 0 0 1
    outer loop
      vertex 7.56773 0.966316 1
      vertex 6.69543 1.5 1
      vertex 6.65418 1.37305 1
    endloop
  endfacet
  facet normal 0 0 1
    outer loop
      vertex 7.56773 0.966316 1
      vertex 6.65418 1.37305 1
      vertex 7.04508 0.0610733 1
    endloop
  endfacet
  facet normal -0 0 1
    outer loop
      vertex 6.23607 0.648858 1
      vertex 7.04508 0.0610733 1
      vertex 6.65418 1.37305 1
    endloop
  endfacet
  facet normal 0 0 1
    outer loop
      vertex 7.04508 0.0610733 1
      vertex 6.23607 0.648858 1
      vertex 6.34565 -0.715724 1
    endloop
  endfacet
  facet normal -0 0 1
    outer loop
      vertex 5.67652 0.02742 1
      vertex 6.34565 -0.715724 1
      vertex 6.23607 0.648858 1
    endloop
  endfacet
  facet normal 0 0 1
    outer loop
      vertex 5.67652 0.02742 1
      vertex 5.5 -1.33013 1
      vertex 6.34565 -0.715724 1
    endloop
  endfacet
  facet normal -0 0 1
    outer loop
      vertex 5 -0.464101 1
      vertex 5.5 -1.33013 1
      vertex 5.67652 0.02742 1
    endloop
  endfacet
  facet normal 0 0 1
    outer loop
      vertex 5 -0.464101 1
      vertex 4.54508 -1.75528 1
      vertex 5.5 -1.33013 1
    endloop
  endfacet
  facet normal -0 0 1
    outer loop
      vertex 4.23607 -0.804226 1
      vertex 4.54508 -1.75528 1
      vertex 5 -0.464101 1
    endloop
  endfacet
  facet normal 0 0 1
    outer loop
      vertex 4.23607 -0.804226 1
      vertex 3.52264 -1.97261 1
      vertex 4.54508 -1.75528 1
    endloop
  endfacet
  facet normal -0 0 1
    outer loop
      vertex 3.41811 -0.978087 1
      vertex 3.52264 -1.97261 1
      vertex 4.23607 -0.804226 1
    endloop
  endfacet
  facet normal -0 0 1
    outer loop
      vertex 2.58189 -0.978087 1
      vertex 3.52264 -1.97261 1
      vertex 3.41811 -0.978087 1
    endloop
  endfacet
  facet normal 0 0 1
    outer loop
      vertex 2.58189 -0.978087 1
      vertex 2.47736 -1.97261 1
      vertex 3.52264 -1.97261 1
    endloop
  endfacet
  facet normal 0 0 1
    outer loop
      vertex 1.76393 -0.804226 1
      vertex 2.47736 -1.97261 1
      vertex 2.58189 -0.978087 1
    endloop
  endfacet
  facet normal 0 0 1
    outer loop
      vertex 1.76393 -0.804226 1
      vertex 1.45491 -1.75528 1
      vertex 2.47736 -1.97261 1
    endloop
  endfacet
  facet normal 0 0 1
    outer loop
      vertex 0.999999 -0.464101 1
      vertex 1.45491 -1.75528 1
      vertex 1.76393 -0.804226 1
    endloop
  endfacet
  facet normal 0 0 1
    outer loop
      vertex 0.999999 -0.464101 1
      vertex 0.499999 -1.33013 1
      vertex 1.45491 -1.75528 1
    endloop
  endfacet
  facet normal 0 0 1
    outer loop
      vertex 0.323477 0.02742 1
      vertex 0.499999 -1.33013 1
      vertex 0.999999 -0.464101 1
    endloop
  endfacet
  facet normal 0 0 1
    outer loop
      vertex -0.345653 -0.715724 1
      vertex 0.323477 0.02742 1
      vertex -0.236068 0.648858 1
    endloop
  endfacet
  facet normal 0 0 1
    outer loop
      vertex 0.323477 0.02742 1
      vertex -0.345653 -0.715724 1
      vertex 0.499999 -1.33013 1
    endloop
  endfacet
  facet normal 0 0 1
    outer loop
      vertex -0.236068 0.648858 1
      vertex -1.04508 0.0610733 1
      vertex -0.345653 -0.715724 1
    endloop
  endfacet
  facet normal 0 0 1
    outer loop
      vertex -1.70866 2.995 1
      vertex -1.04508 0.0610733 1
      vertex -0.236068 0.648858 1
    endloop
  endfacet
  facet normal 0 0 1
    outer loop
      vertex -3.00866 2.995 1
      vertex -1.70866 2.995 1
      vertex -1.70951 2.99691 1
    endloop
  endfacet
  facet normal 0 0 1
    outer loop
      vertex -3.00866 2.995 1
      vertex -1.70994 2.99895 1
      vertex -3.00866 3.005 1
    endloop
  endfacet
  facet normal 0 0 1
    outer loop
      vertex -1.70994 2.99895 1
      vertex -3.00866 2.995 1
      vertex -1.70951 2.99691 1
    endloop
  endfacet
  facet normal 0 0 1
    outer loop
      vertex -1.70866 2.995 1
      vertex -3.00866 2.995 1
      vertex -1.04508 0.0610733 1
    endloop
  endfacet
  facet normal -0 0 1
    outer loop
      vertex -3.00951 3.00309 1
      vertex -3.00866 2.995 1
      vertex -3.00866 3.005 1
    endloop
  endfacet
  facet normal 0 0 1
    outer loop
      vertex -3.00951 3.00309 1
      vertex -3.00951 2.99691 1
      vertex -3.00866 2.995 1
    endloop
  endfacet
  facet normal -0 0 1
    outer loop
      vertex -3.00994 3.00105 1
      vertex -3.00951 2.99691 1
      vertex -3.00951 3.00309 1
    endloop
  endfacet
  facet normal 0 0 1
    outer loop
      vertex -3.00951 2.99691 1
      vertex -3.00994 3.00105 1
      vertex -3.00994 2.99895 1
    endloop
  endfacet
  facet normal -0.913435 -0.406985 0
    outer loop
      vertex -3.00866 2.995 0
      vertex -3.00951 2.99691 1
      vertex -3.00951 2.99691 0
    endloop
  endfacet
  facet normal -0.913435 -0.406985 0
    outer loop
      vertex -3.00951 2.99691 1
      vertex -3.00866 2.995 0
      vertex -3.00866 2.995 1
    endloop
  endfacet
  facet normal 1 -0 0
    outer loop
      vertex -1.70994 2.99895 1
      vertex -1.70994 3.00105 0
      vertex -1.70994 3.00105 1
    endloop
  endfacet
  facet normal 1 0 0
    outer loop
      vertex -1.70994 3.00105 0
      vertex -1.70994 2.99895 1
      vertex -1.70994 2.99895 0
    endloop
  endfacet
  facet normal 0 -1 0
    outer loop
      vertex 2.58189 6.97809 0
      vertex 3.41811 6.97809 1
      vertex 2.58189 6.97809 1
    endloop
  endfacet
  facet normal 0 -1 -0
    outer loop
      vertex 3.41811 6.97809 1
      vertex 2.58189 6.97809 0
      vertex 3.41811 6.97809 0
    endloop
  endfacet
  facet normal 0 1 -0
    outer loop
      vertex 3.41811 -0.978087 0
      vertex 2.58189 -0.978087 1
      vertex 3.41811 -0.978087 1
    endloop
  endfacet
  facet normal 0 1 0
    outer loop
      vertex 2.58189 -0.978087 1
      vertex 3.41811 -0.978087 0
      vertex 2.58189 -0.978087 0
    endloop
  endfacet
  facet normal -0.743145 -0.669131 0
    outer loop
      vertex 6.23607 5.35114 0
      vertex 5.67652 5.97258 1
      vertex 5.67652 5.97258 0
    endloop
  endfacet
  facet normal -0.743145 -0.669131 0
    outer loop
      vertex 5.67652 5.97258 1
      vertex 6.23607 5.35114 0
      vertex 6.23607 5.35114 1
    endloop
  endfacet
  facet normal 0.587784 -0.809018 0
    outer loop
      vertex 0.323477 5.97258 0
      vertex 1 6.4641 1
      vertex 0.323477 5.97258 1
    endloop
  endfacet
  facet normal 0.587784 -0.809018 0
    outer loop
      vertex 1 6.4641 1
      vertex 0.323477 5.97258 0
      vertex 1 6.4641 0
    endloop
  endfacet
  facet normal 0.743145 -0.66913 0
    outer loop
      vertex -0.236068 5.35114 1
      vertex 0.323477 5.97258 0
      vertex 0.323477 5.97258 1
    endloop
  endfacet
  facet normal 0.743145 -0.66913 0
    outer loop
      vertex 0.323477 5.97258 0
      vertex -0.236068 5.35114 1
      vertex -0.236068 5.35114 0
    endloop
  endfacet
  facet normal 0.207912 -0.978148 0
    outer loop
      vertex 1.76393 6.80423 0
      vertex 2.58189 6.97809 1
      vertex 1.76393 6.80423 1
    endloop
  endfacet
  facet normal 0.207912 -0.978148 0
    outer loop
      vertex 2.58189 6.97809 1
      vertex 1.76393 6.80423 0
      vertex 2.58189 6.97809 0
    endloop
  endfacet
  facet normal -0.743145 0.669131 0
    outer loop
      vertex 5.67652 0.02742 0
      vertex 6.23607 0.648858 1
      vertex 6.23607 0.648858 0
    endloop
  endfacet
  facet normal -0.743145 0.669131 0
    outer loop
      vertex 6.23607 0.648858 1
      vertex 5.67652 0.02742 0
      vertex 5.67652 0.02742 1
    endloop
  endfacet
  facet normal -0.866026 -0.5 0
    outer loop
      vertex 6.5 4.894 0
      vertex 6.23607 5.35114 1
      vertex 6.23607 5.35114 0
    endloop
  endfacet
  facet normal -0.866025 -0.5 -0
    outer loop
      vertex 6.65418 4.62695 1
      vertex 6.5 4.894 0
      vertex 6.65418 4.62695 0
    endloop
  endfacet
  facet normal -0.866026 -0.5 8.42141e-009
    outer loop
      vertex 6.5 4.894 0
      vertex 6.65418 4.62695 1
      vertex 6.23607 5.35114 1
    endloop
  endfacet
  facet normal -0.951057 -0.309017 0
    outer loop
      vertex 6.69543 4.5 0
      vertex 6.65418 4.62695 1
      vertex 6.65418 4.62695 0
    endloop
  endfacet
  facet normal -0.951057 -0.309017 0
    outer loop
      vertex 6.65418 4.62695 1
      vertex 6.69543 4.5 0
      vertex 6.69543 4.5 1
    endloop
  endfacet
  facet normal -0.406737 -0.913545 0
    outer loop
      vertex 4.23607 6.80423 0
      vertex 5 6.4641 1
      vertex 4.23607 6.80423 1
    endloop
  endfacet
  facet normal -0.406737 -0.913545 -0
    outer loop
      vertex 5 6.4641 1
      vertex 4.23607 6.80423 0
      vertex 5 6.4641 0
    endloop
  endfacet
  facet normal -0.207912 -0.978148 0
    outer loop
      vertex 3.41811 6.97809 0
      vertex 4.23607 6.80423 1
      vertex 3.41811 6.97809 1
    endloop
  endfacet
  facet normal -0.207912 -0.978148 -0
    outer loop
      vertex 4.23607 6.80423 1
      vertex 3.41811 6.97809 0
      vertex 4.23607 6.80423 0
    endloop
  endfacet
  facet normal -0.587785 -0.809017 0
    outer loop
      vertex 5 6.4641 0
      vertex 5.67652 5.97258 1
      vertex 5 6.4641 1
    endloop
  endfacet
  facet normal -0.587785 -0.809017 -0
    outer loop
      vertex 5.67652 5.97258 1
      vertex 5 6.4641 0
      vertex 5.67652 5.97258 0
    endloop
  endfacet
  facet normal 0.846982 -0.531621 0
    outer loop
      vertex -1.70866 3.005 1
      vertex -0.236068 5.35114 0
      vertex -0.236068 5.35114 1
    endloop
  endfacet
  facet normal 0.846982 -0.531621 0
    outer loop
      vertex -0.236068 5.35114 0
      vertex -1.70866 3.005 1
      vertex -1.70866 3.005 0
    endloop
  endfacet
  facet normal 0.406738 -0.913545 0
    outer loop
      vertex 1 6.4641 0
      vertex 1.76393 6.80423 1
      vertex 1 6.4641 1
    endloop
  endfacet
  facet normal 0.406738 -0.913545 0
    outer loop
      vertex 1.76393 6.80423 1
      vertex 1 6.4641 0
      vertex 1.76393 6.80423 0
    endloop
  endfacet
  facet normal -0.207912 0.978148 0
    outer loop
      vertex 4.23607 -0.804226 0
      vertex 3.41811 -0.978087 1
      vertex 4.23607 -0.804226 1
    endloop
  endfacet
  facet normal -0.207912 0.978148 0
    outer loop
      vertex 3.41811 -0.978087 1
      vertex 4.23607 -0.804226 0
      vertex 3.41811 -0.978087 0
    endloop
  endfacet
  facet normal -0.587784 0.809018 0
    outer loop
      vertex 5.67652 0.02742 0
      vertex 5 -0.464101 1
      vertex 5.67652 0.02742 1
    endloop
  endfacet
  facet normal -0.587784 0.809018 0
    outer loop
      vertex 5 -0.464101 1
      vertex 5.67652 0.02742 0
      vertex 5 -0.464101 0
    endloop
  endfacet
  facet normal 0.587784 0.809018 -0
    outer loop
      vertex 0.999999 -0.464101 0
      vertex 0.323477 0.02742 1
      vertex 0.999999 -0.464101 1
    endloop
  endfacet
  facet normal 0.587784 0.809018 0
    outer loop
      vertex 0.323477 0.02742 1
      vertex 0.999999 -0.464101 0
      vertex 0.323477 0.02742 0
    endloop
  endfacet
  facet normal 0.207912 0.978148 -0
    outer loop
      vertex 2.58189 -0.978087 0
      vertex 1.76393 -0.804226 1
      vertex 2.58189 -0.978087 1
    endloop
  endfacet
  facet normal 0.207912 0.978148 0
    outer loop
      vertex 1.76393 -0.804226 1
      vertex 2.58189 -0.978087 0
      vertex 1.76393 -0.804226 0
    endloop
  endfacet
  facet normal 0.743145 0.66913 0
    outer loop
      vertex 0.323477 0.02742 1
      vertex -0.236068 0.648858 0
      vertex -0.236068 0.648858 1
    endloop
  endfacet
  facet normal 0.743145 0.66913 0
    outer loop
      vertex -0.236068 0.648858 0
      vertex 0.323477 0.02742 1
      vertex 0.323477 0.02742 0
    endloop
  endfacet
  facet normal -0.406737 0.913545 0
    outer loop
      vertex 5 -0.464101 0
      vertex 4.23607 -0.804226 1
      vertex 5 -0.464101 1
    endloop
  endfacet
  facet normal -0.406737 0.913545 0
    outer loop
      vertex 4.23607 -0.804226 1
      vertex 5 -0.464101 0
      vertex 4.23607 -0.804226 0
    endloop
  endfacet
  facet normal -0.951056 0.309018 0
    outer loop
      vertex 6.65418 1.37305 0
      vertex 6.69543 1.5 1
      vertex 6.69543 1.5 0
    endloop
  endfacet
  facet normal -0.951056 0.309018 0
    outer loop
      vertex 6.69543 1.5 1
      vertex 6.65418 1.37305 0
      vertex 6.65418 1.37305 1
    endloop
  endfacet
  facet normal -0.866025 0.5 0
    outer loop
      vertex 6.5 1.106 0
      vertex 6.65418 1.37305 1
      vertex 6.65418 1.37305 0
    endloop
  endfacet
  facet normal -0.866026 0.5 0
    outer loop
      vertex 6.23607 0.648858 1
      vertex 6.5 1.106 0
      vertex 6.23607 0.648858 0
    endloop
  endfacet
  facet normal -0.866026 0.5 8.42141e-009
    outer loop
      vertex 6.5 1.106 0
      vertex 6.23607 0.648858 1
      vertex 6.65418 1.37305 1
    endloop
  endfacet
  facet normal 0.406737 0.913545 -0
    outer loop
      vertex 1.76393 -0.804226 0
      vertex 0.999999 -0.464101 1
      vertex 1.76393 -0.804226 1
    endloop
  endfacet
  facet normal 0.406737 0.913545 0
    outer loop
      vertex 0.999999 -0.464101 1
      vertex 1.76393 -0.804226 0
      vertex 0.999999 -0.464101 0
    endloop
  endfacet
  facet normal 0.846982 0.531621 0
    outer loop
      vertex -0.236068 0.648858 1
      vertex -1.70866 2.995 0
      vertex -1.70866 2.995 1
    endloop
  endfacet
  facet normal 0.846982 0.531621 0
    outer loop
      vertex -1.70866 2.995 0
      vertex -0.236068 0.648858 1
      vertex -0.236068 0.648858 0
    endloop
  endfacet
  facet normal 0.978122 0.208033 0
    outer loop
      vertex -1.70951 2.99691 1
      vertex -1.70994 2.99895 0
      vertex -1.70994 2.99895 1
    endloop
  endfacet
  facet normal 0.978122 0.208033 0
    outer loop
      vertex -1.70994 2.99895 0
      vertex -1.70951 2.99691 1
      vertex -1.70951 2.99691 0
    endloop
  endfacet
  facet normal 0.913435 -0.406985 0
    outer loop
      vertex -1.70951 3.00309 1
      vertex -1.70866 3.005 0
      vertex -1.70866 3.005 1
    endloop
  endfacet
  facet normal 0.913435 -0.406985 0
    outer loop
      vertex -1.70866 3.005 0
      vertex -1.70951 3.00309 1
      vertex -1.70951 3.00309 0
    endloop
  endfacet
  facet normal 0.978122 -0.208033 0
    outer loop
      vertex -1.70994 3.00105 1
      vertex -1.70951 3.00309 0
      vertex -1.70951 3.00309 1
    endloop
  endfacet
  facet normal 0.978122 -0.208033 0
    outer loop
      vertex -1.70951 3.00309 0
      vertex -1.70994 3.00105 1
      vertex -1.70994 3.00105 0
    endloop
  endfacet
  facet normal 0.913435 0.406985 0
    outer loop
      vertex -1.70866 2.995 1
      vertex -1.70951 2.99691 0
      vertex -1.70951 2.99691 1
    endloop
  endfacet
  facet normal 0.913435 0.406985 0
    outer loop
      vertex -1.70951 2.99691 0
      vertex -1.70866 2.995 1
      vertex -1.70866 2.995 0
    endloop
  endfacet
  facet normal 0 -1 0
    outer loop
      vertex 7.5 4.5 0
      vertex 6.69543 4.5 1
      vertex 6.69543 4.5 0
    endloop
  endfacet
  facet normal 0 -1 0
    outer loop
      vertex 6.69543 4.5 1
      vertex 7.5 4.5 0
      vertex 7.74113 4.5 1
    endloop
  endfacet
  facet normal 0 -1 -0
    outer loop
      vertex 7.74113 4.5 1
      vertex 7.5 4.5 0
      vertex 7.74113 4.5 0
    endloop
  endfacet
  facet normal 0 1 0
    outer loop
      vertex 7.5 1.5 0
      vertex 7.74113 1.5 1
      vertex 7.74113 1.5 0
    endloop
  endfacet
  facet normal 0 1 0
    outer loop
      vertex 7.74113 1.5 1
      vertex 7.5 1.5 0
      vertex 6.69543 1.5 1
    endloop
  endfacet
  facet normal 0 1 0
    outer loop
      vertex 6.69543 1.5 1
      vertex 7.5 1.5 0
      vertex 6.69543 1.5 0
    endloop
  endfacet
  facet normal -1 0 0
    outer loop
      vertex -3.5 -2.5 -2
      vertex -3.5 8.5 -1.5
      vertex -3.5 8.5 -2
    endloop
  endfacet
  facet normal -1 -0 0
    outer loop
      vertex -3.5 8.5 -1.5
      vertex -3.5 -2.5 -2
      vertex -3.5 -2.5 -1.5
    endloop
  endfacet
  facet normal -0 0 1
    outer loop
      vertex 6.5 4.5 -1.5
      vertex 7.5 1.5 -1.5
      vertex 7.5 4.5 -1.5
    endloop
  endfacet
  facet normal 0 0 1
    outer loop
      vertex 7.5 1.5 -1.5
      vertex 6.5 4.5 -1.5
      vertex 6.5 1.5 -1.5
    endloop
  endfacet
  facet normal 0 0 1
    outer loop
      vertex 7.5 4.5 -1.5
      vertex 8 8.5 -1.5
      vertex 7.5 5.5 -1.5
    endloop
  endfacet
  facet normal 0 0 1
    outer loop
      vertex 8 8.5 -1.5
      vertex 6.5 5.5 -1.5
      vertex 7.5 5.5 -1.5
    endloop
  endfacet
  facet normal 0 0 1
    outer loop
      vertex 3.5 3.5 -1.5
      vertex 6.5 4.5 -1.5
      vertex 6.5 5.5 -1.5
    endloop
  endfacet
  facet normal 0 0 1
    outer loop
      vertex 6.5 4.5 -1.5
      vertex 3.5 3.5 -1.5
      vertex 6.5 1.5 -1.5
    endloop
  endfacet
  facet normal -0 0 1
    outer loop
      vertex 3.5 2.5 -1.5
      vertex 6.5 1.5 -1.5
      vertex 3.5 3.5 -1.5
    endloop
  endfacet
  facet normal -0 0 1
    outer loop
      vertex -3.5 8.5 -1.5
      vertex 6.5 5.5 -1.5
      vertex 8 8.5 -1.5
    endloop
  endfacet
  facet normal 0 0 1
    outer loop
      vertex 6.5 5.5 -1.5
      vertex 2.5 3.5 -1.5
      vertex 3.5 3.5 -1.5
    endloop
  endfacet
  facet normal 0 0 1
    outer loop
      vertex 2.5 3.5 -1.5
      vertex -2 3.5 -1.5
      vertex 2.5 2.5 -1.5
    endloop
  endfacet
  facet normal 0 0 1
    outer loop
      vertex 6.5 5.5 -1.5
      vertex -3.5 8.5 -1.5
      vertex 2.5 3.5 -1.5
    endloop
  endfacet
  facet normal 0 0 1
    outer loop
      vertex 2.5 3.5 -1.5
      vertex -3.5 8.5 -1.5
      vertex -2 3.5 -1.5
    endloop
  endfacet
  facet normal 0 0 1
    outer loop
      vertex -3 3.5 -1.5
      vertex -3.5 8.5 -1.5
      vertex -3 2.5 -1.5
    endloop
  endfacet
  facet normal 0 0 1
    outer loop
      vertex -2 3.5 -1.5
      vertex -3.5 8.5 -1.5
      vertex -3 3.5 -1.5
    endloop
  endfacet
  facet normal 0 0 1
    outer loop
      vertex 8 8.5 -1.5
      vertex 7.5 4.5 -1.5
      vertex 8 -2.5 -1.5
    endloop
  endfacet
  facet normal -0 0 1
    outer loop
      vertex 7.5 1.5 -1.5
      vertex 8 -2.5 -1.5
      vertex 7.5 4.5 -1.5
    endloop
  endfacet
  facet normal -0 0 1
    outer loop
      vertex 7.5 0.5 -1.5
      vertex 8 -2.5 -1.5
      vertex 7.5 1.5 -1.5
    endloop
  endfacet
  facet normal -0 0 1
    outer loop
      vertex 6.5 0.5 -1.5
      vertex 8 -2.5 -1.5
      vertex 7.5 0.5 -1.5
    endloop
  endfacet
  facet normal 0 0 1
    outer loop
      vertex 6.5 1.5 -1.5
      vertex 3.5 2.5 -1.5
      vertex 6.5 0.5 -1.5
    endloop
  endfacet
  facet normal -0 0 1
    outer loop
      vertex 2.5 2.5 -1.5
      vertex 6.5 0.5 -1.5
      vertex 3.5 2.5 -1.5
    endloop
  endfacet
  facet normal 0 0 1
    outer loop
      vertex -3.5 -2.5 -1.5
      vertex 6.5 0.5 -1.5
      vertex 2.5 2.5 -1.5
    endloop
  endfacet
  facet normal 0 0 1
    outer loop
      vertex -2 2.5 -1.5
      vertex 2.5 2.5 -1.5
      vertex -2 3.5 -1.5
    endloop
  endfacet
  facet normal 0 0 1
    outer loop
      vertex -3.5 -2.5 -1.5
      vertex 2.5 2.5 -1.5
      vertex -2 2.5 -1.5
    endloop
  endfacet
  facet normal 0 0 1
    outer loop
      vertex -3.5 -2.5 -1.5
      vertex -2 2.5 -1.5
      vertex -3 2.5 -1.5
    endloop
  endfacet
  facet normal 0 0 1
    outer loop
      vertex 6.5 0.5 -1.5
      vertex -3.5 -2.5 -1.5
      vertex 8 -2.5 -1.5
    endloop
  endfacet
  facet normal 0 0 1
    outer loop
      vertex -3.5 -2.5 -1.5
      vertex -3 2.5 -1.5
      vertex -3.5 8.5 -1.5
    endloop
  endfacet
  facet normal 1 -0 0
    outer loop
      vertex 8 -2.5 -1.5
      vertex 8 8.5 -2
      vertex 8 8.5 -1.5
    endloop
  endfacet
  facet normal 1 0 0
    outer loop
      vertex 8 8.5 -2
      vertex 8 -2.5 -1.5
      vertex 8 -2.5 -2
    endloop
  endfacet
  facet normal 0 1 -0
    outer loop
      vertex 8 8.5 -2
      vertex -3.5 8.5 -1.5
      vertex 8 8.5 -1.5
    endloop
  endfacet
  facet normal 0 1 0
    outer loop
      vertex -3.5 8.5 -1.5
      vertex 8 8.5 -2
      vertex -3.5 8.5 -2
    endloop
  endfacet
  facet normal 0 0 -1
    outer loop
      vertex -3.5 -2.5 -2
      vertex 8 8.5 -2
      vertex 8 -2.5 -2
    endloop
  endfacet
  facet normal -0 0 -1
    outer loop
      vertex 8 8.5 -2
      vertex -3.5 -2.5 -2
      vertex -3.5 8.5 -2
    endloop
  endfacet
  facet normal 0 -1 0
    outer loop
      vertex -3.5 -2.5 -2
      vertex 8 -2.5 -1.5
      vertex -3.5 -2.5 -1.5
    endloop
  endfacet
  facet normal 0 -1 -0
    outer loop
      vertex 8 -2.5 -1.5
      vertex -3.5 -2.5 -2
      vertex 8 -2.5 -2
    endloop
  endfacet
  facet normal -1 0 0
    outer loop
      vertex -3 3.5 -1.5
      vertex -3 3.01794 0
      vertex -3 3.5 0
    endloop
  endfacet
  facet normal -1 0 0
    outer loop
      vertex -3 3.5 -1.5
      vertex -3 2.98206 0
      vertex -3 3.01794 0
    endloop
  endfacet
  facet normal -1 0 0
    outer loop
      vertex -3 2.5 -1.5
      vertex -3 2.98206 0
      vertex -3 3.5 -1.5
    endloop
  endfacet
  facet normal -1 -0 0
    outer loop
      vertex -3 2.98206 0
      vertex -3 2.5 -1.5
      vertex -3 2.5 0
    endloop
  endfacet
  facet normal 1 -0 0
    outer loop
      vertex -2 2.5 0
      vertex -2 3.5 -1.5
      vertex -2 3.5 0
    endloop
  endfacet
  facet normal 1 0 0
    outer loop
      vertex -2 3.5 -1.5
      vertex -2 2.5 0
      vertex -2 2.5 -1.5
    endloop
  endfacet
  facet normal 0 1 -0
    outer loop
      vertex -2 3.5 -1.5
      vertex -2.67737 3.5 0
      vertex -2 3.5 0
    endloop
  endfacet
  facet normal 0 1 0
    outer loop
      vertex -3 3.5 -1.5
      vertex -2.67737 3.5 0
      vertex -2 3.5 -1.5
    endloop
  endfacet
  facet normal 0 1 0
    outer loop
      vertex -2.67737 3.5 0
      vertex -3 3.5 -1.5
      vertex -3 3.5 0
    endloop
  endfacet
  facet normal 0 -1 0
    outer loop
      vertex -3 2.5 -1.5
      vertex -2.67737 2.5 0
      vertex -3 2.5 0
    endloop
  endfacet
  facet normal 0 -1 0
    outer loop
      vertex -2 2.5 -1.5
      vertex -2.67737 2.5 0
      vertex -3 2.5 -1.5
    endloop
  endfacet
  facet normal 0 -1 0
    outer loop
      vertex -2.67737 2.5 0
      vertex -2 2.5 -1.5
      vertex -2 2.5 0
    endloop
  endfacet
  facet normal -1 0 0
    outer loop
      vertex 2.5 2.5 -1.5
      vertex 2.5 3.5 0
      vertex 2.5 3.5 -1.5
    endloop
  endfacet
  facet normal -1 -0 0
    outer loop
      vertex 2.5 3.5 0
      vertex 2.5 2.5 -1.5
      vertex 2.5 2.5 0
    endloop
  endfacet
  facet normal 1 -0 0
    outer loop
      vertex 3.5 2.5 0
      vertex 3.5 3.5 -1.5
      vertex 3.5 3.5 0
    endloop
  endfacet
  facet normal 1 0 0
    outer loop
      vertex 3.5 3.5 -1.5
      vertex 3.5 2.5 0
      vertex 3.5 2.5 -1.5
    endloop
  endfacet
  facet normal 0 1 -0
    outer loop
      vertex 3.5 3.5 -1.5
      vertex 2.5 3.5 0
      vertex 3.5 3.5 0
    endloop
  endfacet
  facet normal 0 1 0
    outer loop
      vertex 2.5 3.5 0
      vertex 3.5 3.5 -1.5
      vertex 2.5 3.5 -1.5
    endloop
  endfacet
  facet normal 0 -1 0
    outer loop
      vertex 2.5 2.5 -1.5
      vertex 2.98985 2.5 0
      vertex 2.5 2.5 0
    endloop
  endfacet
  facet normal 0 -1 -0
    outer loop
      vertex 2.98985 2.5 0
      vertex 2.5 2.5 -1.5
      vertex 3.01015 2.5 0
    endloop
  endfacet
  facet normal 0 -1 0
    outer loop
      vertex 3.5 2.5 -1.5
      vertex 3.01015 2.5 0
      vertex 2.5 2.5 -1.5
    endloop
  endfacet
  facet normal 0 -1 0
    outer loop
      vertex 3.01015 2.5 0
      vertex 3.5 2.5 -1.5
      vertex 3.5 2.5 0
    endloop
  endfacet
  facet normal -1 0 0
    outer loop
      vertex 6.5 5.5 -1.5
      vertex 6.5 4.894 0
      vertex 6.5 5.5 0
    endloop
  endfacet
  facet normal -1 0 0
    outer loop
      vertex 6.5 4.5 -1.5
      vertex 6.5 4.894 0
      vertex 6.5 5.5 -1.5
    endloop
  endfacet
  facet normal -1 -0 0
    outer loop
      vertex 6.5 4.894 0
      vertex 6.5 4.5 -1.5
      vertex 6.5 4.5 0
    endloop
  endfacet
  facet normal 1 -0 0
    outer loop
      vertex 7.5 5.15099 0
      vertex 7.5 5.5 -1.5
      vertex 7.5 5.5 0
    endloop
  endfacet
  facet normal 1 0 0
    outer loop
      vertex 7.5 4.5 -1.5
      vertex 7.5 5.15099 0
      vertex 7.5 4.5 0
    endloop
  endfacet
  facet normal 1 0 0
    outer loop
      vertex 7.5 5.15099 0
      vertex 7.5 4.5 -1.5
      vertex 7.5 5.5 -1.5
    endloop
  endfacet
  facet normal 0 -1 0
    outer loop
      vertex 6.5 4.5 -1.5
      vertex 6.69543 4.5 0
      vertex 6.5 4.5 0
    endloop
  endfacet
  facet normal 0 -1 0
    outer loop
      vertex 7.5 4.5 -1.5
      vertex 6.69543 4.5 0
      vertex 6.5 4.5 -1.5
    endloop
  endfacet
  facet normal 0 -1 0
    outer loop
      vertex 6.69543 4.5 0
      vertex 7.5 4.5 -1.5
      vertex 7.5 4.5 0
    endloop
  endfacet
  facet normal 0 1 -0
    outer loop
      vertex 7.5 5.5 -1.5
      vertex 7.2985 5.5 0
      vertex 7.5 5.5 0
    endloop
  endfacet
  facet normal 0 1 0
    outer loop
      vertex 6.5 5.5 -1.5
      vertex 7.2985 5.5 0
      vertex 7.5 5.5 -1.5
    endloop
  endfacet
  facet normal 0 1 0
    outer loop
      vertex 7.2985 5.5 0
      vertex 6.5 5.5 -1.5
      vertex 6.5 5.5 0
    endloop
  endfacet
  facet normal -1 0 0
    outer loop
      vertex 6.5 1.5 -1.5
      vertex 6.5 1.106 0
      vertex 6.5 1.5 0
    endloop
  endfacet
  facet normal -1 0 0
    outer loop
      vertex 6.5 0.5 -1.5
      vertex 6.5 1.106 0
      vertex 6.5 1.5 -1.5
    endloop
  endfacet
  facet normal -1 -0 0
    outer loop
      vertex 6.5 1.106 0
      vertex 6.5 0.5 -1.5
      vertex 6.5 0.5 0
    endloop
  endfacet
  facet normal 1 -0 0
    outer loop
      vertex 7.5 0.849009 0
      vertex 7.5 1.5 -1.5
      vertex 7.5 1.5 0
    endloop
  endfacet
  facet normal 1 0 0
    outer loop
      vertex 7.5 0.5 -1.5
      vertex 7.5 0.849009 0
      vertex 7.5 0.5 0
    endloop
  endfacet
  facet normal 1 0 0
    outer loop
      vertex 7.5 0.849009 0
      vertex 7.5 0.5 -1.5
      vertex 7.5 1.5 -1.5
    endloop
  endfacet
  facet normal 0 -1 0
    outer loop
      vertex 6.5 0.5 -1.5
      vertex 7.2985 0.5 0
      vertex 6.5 0.5 0
    endloop
  endfacet
  facet normal 0 -1 0
    outer loop
      vertex 7.5 0.5 -1.5
      vertex 7.2985 0.5 0
      vertex 6.5 0.5 -1.5
    endloop
  endfacet
  facet normal 0 -1 0
    outer loop
      vertex 7.2985 0.5 0
      vertex 7.5 0.5 -1.5
      vertex 7.5 0.5 0
    endloop
  endfacet
  facet normal 0 1 -0
    outer loop
      vertex 7.5 1.5 -1.5
      vertex 6.69543 1.5 0
      vertex 7.5 1.5 0
    endloop
  endfacet
  facet normal 0 1 0
    outer loop
      vertex 6.5 1.5 -1.5
      vertex 6.69543 1.5 0
      vertex 7.5 1.5 -1.5
    endloop
  endfacet
  facet normal 0 1 0
    outer loop
      vertex 6.69543 1.5 0
      vertex 6.5 1.5 -1.5
      vertex 6.5 1.5 0
    endloop
  endfacet
endsolid OpenSCAD_Model
